<svg width="126" height="30" viewBox="0 0 126 30" fill="none" xmlns="http://www.w3.org/2000/svg">
<path d="M32.8863 15.7606C31.7071 15.6044 30.7867 15.2775 30.1213 14.7763C29.4597 14.2751 29.127 13.6249 29.127 12.8259C29.127 11.8343 29.5595 11.028 30.4245 10.4106C31.2894 9.7931 32.476 9.48438 33.9842 9.48438C35.0857 9.48438 36.0801 9.81853 36.9635 10.4905C37.847 11.1588 38.4421 11.8815 38.7416 12.6552L37.1669 13.5051C37.0079 13.0147 36.605 12.5244 35.9581 12.0377C35.3075 11.5474 34.6237 11.304 33.9029 11.304C33.0231 11.304 32.3355 11.4457 31.8365 11.729C31.3375 12.0123 31.0898 12.3283 31.0898 12.677C31.0898 13.0002 31.3079 13.269 31.7404 13.4869C32.1729 13.7048 32.683 13.861 33.2744 13.9518L35.3001 14.2606C36.4423 14.4276 37.3443 14.7872 38.0133 15.3429C38.6824 15.8986 39.0151 16.5342 39.0151 17.257C39.0151 18.3394 38.5974 19.1965 37.7657 19.8285C36.934 20.4605 35.8139 20.7765 34.413 20.7765C33.1155 20.7765 31.9659 20.4641 30.9604 19.8394C29.9587 19.2147 29.2675 18.4302 28.8867 17.4931L30.4614 16.4107C30.7091 17.079 31.2192 17.6674 31.9844 18.1687C32.7532 18.6699 33.5739 18.9205 34.4536 18.9205C35.241 18.9205 35.8657 18.797 36.3314 18.5537C36.7972 18.3103 37.0301 17.9616 37.0301 17.5113C37.0301 17.1771 36.8416 16.872 36.4682 16.5923C36.0949 16.3163 35.5921 16.1311 34.9637 16.0403L32.8789 15.7715L32.8863 15.7606Z" fill="white"/>
<path d="M42.4641 17.1525V20.4177H40.4199V5.92578H42.4641V14.6609L47.3028 9.79031H49.8977L45.3732 14.2723L50.5446 20.4177H48.1049L44.0351 15.5689L42.4604 17.1525H42.4641Z" fill="white"/>
<path d="M50.666 9.79102H52.9098L56.1368 19.4923L59.3823 9.79102H61.6261L58.0257 20.4185L56.7652 24.283H54.5621L55.8411 20.4185H54.2664L50.666 9.79102Z" fill="white"/>
<path d="M64.7287 20.4177H62.6846V5.92578H64.7287V11.1814C65.7268 10.0591 67.0353 9.49974 68.6618 9.49974C70.2883 9.49974 71.5598 10.0191 72.5949 11.0543C73.6299 12.093 74.1474 13.4333 74.1474 15.0822C74.1474 16.7312 73.6299 18.0751 72.5949 19.1102C71.5598 20.149 70.2476 20.6647 68.6618 20.6647C67.076 20.6647 65.7231 20.1054 64.7287 18.9831V20.4141V20.4177ZM71.0719 12.5035C70.3437 11.7879 69.4676 11.432 68.4474 11.432C67.4272 11.432 66.5511 11.7879 65.8303 12.5035C65.1095 13.219 64.7472 14.0798 64.7472 15.0822C64.7472 16.1501 65.1058 17.029 65.8192 17.7119C66.5326 18.3947 67.4087 18.7361 68.4437 18.7361C69.4787 18.7361 70.3585 18.3947 71.0793 17.7119C71.8001 17.029 72.1624 16.1537 72.1624 15.0822C72.1624 14.0762 71.8001 13.219 71.0719 12.5035Z" fill="white"/>
<path d="M84.9652 16.397L86.6767 17.345C86.1924 18.362 85.4938 19.1719 84.5808 19.7712C83.6677 20.3705 82.6549 20.6683 81.5423 20.6683C79.8751 20.6683 78.4816 20.1344 77.3541 19.063C76.2267 17.9951 75.6611 16.6658 75.6611 15.0822C75.6611 13.4986 76.2045 12.1693 77.295 11.1015C78.3817 10.0336 79.7347 9.49609 81.3463 9.49609C82.958 9.49609 84.3109 10.03 85.3977 11.1015C86.4845 12.1693 87.0315 13.4986 87.0315 15.0822C87.0315 15.2493 87.0204 15.4091 87.002 15.5544C86.9835 15.7033 86.9576 15.8086 86.9317 15.874L86.9132 15.9721H77.7275C77.9234 16.8111 78.3781 17.4794 79.0841 17.9806C79.7901 18.4818 80.6107 18.7361 81.5423 18.7361C82.2889 18.7361 82.9691 18.5254 83.579 18.1077C84.1889 17.69 84.651 17.1198 84.9652 16.397ZM77.709 14.2904H84.9652C84.7804 13.4659 84.3516 12.7831 83.6788 12.2419C83.0024 11.7008 82.2261 11.432 81.3463 11.432C80.4666 11.432 79.6866 11.7008 79.0065 12.2419C78.3263 12.7831 77.8901 13.4659 77.709 14.2904Z" fill="white"/>
<path d="M96.984 14.0047C96.984 13.3218 96.7105 12.7153 96.1597 12.1886C95.6089 11.662 94.8216 11.3968 93.8013 11.3968C93.0399 11.3968 92.3708 11.622 91.7941 12.0724C91.2175 12.5228 90.7628 13.1221 90.4375 13.8703L88.726 12.9223C89.2362 11.8799 89.9274 11.0409 90.7998 10.4089C91.6722 9.77693 92.6702 9.46094 93.7976 9.46094C95.45 9.46094 96.7363 9.87136 97.6531 10.6886C98.5698 11.5058 99.0282 12.6172 99.0282 14.0228V20.4007H96.984V18.7954C96.6698 19.3511 96.1412 19.8014 95.4019 20.1465C94.6626 20.4952 93.879 20.6695 93.0509 20.6695C91.7535 20.6695 90.6778 20.3535 89.8239 19.7215C88.97 19.0896 88.5449 18.2869 88.5449 17.3062C88.5449 16.3256 88.9478 15.5628 89.7537 14.9381C90.5595 14.3134 91.7239 14.001 93.2432 14.001H96.9803L96.984 14.0047ZM93.0509 18.7373C93.72 18.7373 94.3373 18.6501 94.8992 18.4757C95.4611 18.3014 95.9527 17.9818 96.363 17.5205C96.7733 17.0592 96.984 16.4781 96.984 15.7807H93.2469C92.3153 15.7807 91.6315 15.9333 91.1916 16.2348C90.7517 16.5362 90.5336 16.8958 90.5336 17.3062C90.5336 17.7166 90.7517 18.0581 91.1916 18.3305C91.6315 18.5992 92.2488 18.7373 93.0509 18.7373Z" fill="white"/>
<path d="M100.778 9.79105H102.822V11.2984C103.532 10.1397 104.704 9.55859 106.341 9.55859C107.166 9.55859 107.89 9.74383 108.504 10.1179C109.121 10.492 109.587 11.0151 109.901 11.6834C110.426 10.9351 110.992 10.394 111.601 10.0598C112.211 9.72567 112.962 9.55859 113.853 9.55859C115.072 9.55859 116.107 10.0271 116.961 10.9606C117.815 11.894 118.24 13.0526 118.24 14.4292V20.4185H116.196V14.9486C116.196 12.6422 115.283 11.4909 113.461 11.4909C112.636 11.4909 111.938 11.8177 111.376 12.4751C110.81 13.1326 110.529 13.957 110.529 14.9486V20.4185H108.485V14.9486C108.485 12.6422 107.572 11.4909 105.75 11.4909C104.926 11.4909 104.227 11.8177 103.665 12.4751C103.1 13.1326 102.819 13.957 102.819 14.9486V20.4185H100.774V9.79105H100.778Z" fill="white"/>
<path d="M119.472 3.25362H118.474V2.42551H121.279V3.25362H120.329V6.01036H119.472V3.25362ZM124.469 6.01036H123.179L122.381 2.84683V6.01036H121.538V2.42188H123.179L123.822 5.60357L124.373 2.42188H126V6.01036H125.157V2.84683L124.466 6.01036H124.469Z" fill="white"/>
<path d="M17.721 17.5566V18.1559L0 29.4989V28.3294L17.721 17.5566Z" fill="white"/>
<path d="M17.721 16.9805V17.5652L0 26.9759V25.8246L17.721 16.9805Z" fill="white"/>
<path d="M17.721 16.4062V16.9837L0 24.4549V23.3036L17.721 16.4062Z" fill="white"/>
<path d="M17.721 15.8544V16.4173L0 21.9454V20.7758L17.5251 15.8907L17.721 15.8398" fill="white"/>
<path d="M17.721 15.8392V15.2617L17.392 15.3126L0 18.2182V19.4241L17.5251 15.8901L17.721 15.8537V15.8392Z" fill="white"/>
<path d="M17.721 0.5V1.52061L0.0295719 11.9192L0 11.9374V11.2836L17.721 0.5Z" fill="white"/>
<path d="M0 12.5697L0.0480548 12.5479L17.721 3.96164V3.01367L0.0295719 11.9195L0 11.934V11.9377V12.566V12.5697Z" fill="white"/>
<path d="M0 12.5655L0.0480548 12.5473L17.721 5.51562V6.41275L0.184824 13.1139L0 13.1829V13.1648V12.5691V12.5655Z" fill="white"/>
<path d="M17.721 8.01172V8.87252L0.417704 13.6669L0 13.7831V13.1656L0.184824 13.1148L17.721 8.01172Z" fill="white"/>
<path d="M17.721 10.498V11.3371L0 14.3589V13.7415L0.417704 13.6652L17.721 10.498Z" fill="white"/>
<path d="M17.721 15.3394L17.3883 15.3357L0 15.0888V14.2207L17.721 14.4749V15.3212V15.3394Z" fill="white"/>
</svg>
