<svg width="25" height="24" viewBox="0 0 25 24" fill="none" xmlns="http://www.w3.org/2000/svg">
<g id="Check icon">
<path d="M0.612305 12C0.612305 5.37258 5.98489 0 12.6123 0C19.2397 0 24.6123 5.37258 24.6123 12C24.6123 18.6274 19.2397 24 12.6123 24C5.98489 24 0.612305 18.6274 0.612305 12Z" fill="#F4F6FF"/>
<path id="Icon" fill-rule="evenodd" clip-rule="evenodd" d="M17.7088 7.39016L10.5488 14.3002L8.64881 12.2702C8.29881 11.9402 7.74881 11.9202 7.34881 12.2002C6.95881 12.4902 6.84881 13.0002 7.08881 13.4102L9.33881 17.0702C9.55881 17.4102 9.93881 17.6202 10.3688 17.6202C10.7788 17.6202 11.1688 17.4102 11.3888 17.0702C11.7488 16.6002 18.6188 8.41016 18.6188 8.41016C19.5188 7.49016 18.4288 6.68016 17.7088 7.38016V7.39016Z" fill="#0056ED"/>
</g>
</svg>
