<svg width="24" height="25" viewBox="0 0 24 25" fill="none" xmlns="http://www.w3.org/2000/svg">
<g id="Social icons" clip-path="url(#clip0_50_224)">
<path id="Subtract" d="M12 0.95459C18.6274 0.95459 24 6.32717 24 12.9546C24 18.944 19.6118 23.9086 13.875 24.8088V16.4233H16.6711L17.2031 12.9546H13.875V10.7046C13.875 9.75561 14.34 8.82959 15.8306 8.82959H17.3438V5.87646C17.3438 5.87646 17.1846 5.84931 16.9229 5.81349C16.5118 5.75722 15.8477 5.67957 15.1498 5.65216C14.9867 5.64575 14.8216 5.64209 14.6576 5.64209C11.9166 5.64209 10.125 7.30334 10.125 10.3108V12.9546H7.07812V16.4233H10.125V24.8088C4.3882 23.9086 0 18.944 0 12.9546C0 6.32717 5.37258 0.95459 12 0.95459Z" fill="#E3E8EF"/>
</g>
<defs>
<clipPath id="clip0_50_224">
<rect width="24" height="24" fill="white" transform="translate(0 0.95459)"/>
</clipPath>
</defs>
</svg>
