<svg width="240" height="124" viewBox="0 0 240 124" fill="none" xmlns="http://www.w3.org/2000/svg">
<g id="Frame 477">
<rect x="0.363647" y="0.364258" width="238.841" height="123.273" rx="16.6932" fill="url(#paint0_linear_49_11002)"/>
<path id="Vector" fill-rule="evenodd" clip-rule="evenodd" d="M64.7514 52.2864H56.6275C53.777 52.2864 52.3436 53.0572 52.3436 53.0572V35.8667H39.6793V88.4856H52.3436V67.2537C52.3436 65.3755 53.866 63.8547 55.739 63.8547H63.1114C64.9873 63.8547 66.5043 65.3755 66.5043 67.2537V88.4856H79.174V65.6094C79.174 55.988 72.7709 52.2864 64.7514 52.2864ZM186.523 52.2864V73.5155C186.523 75.3967 185.007 76.9174 183.131 76.9174H175.761C173.885 76.9174 172.368 75.3967 172.368 73.5155V52.2864H159.696V74.5757C159.696 83.6867 165.517 88.4856 174.121 88.4856H186.526V88.4196C194.451 88.4196 199.193 82.7737 199.193 74.5757V52.2864H186.523ZM115.061 73.5155C115.061 75.3967 113.542 76.9174 111.666 76.9174H104.293C102.417 76.9174 100.901 75.3967 100.901 73.5155V52.2864H88.2307V74.5757C88.2307 83.6867 94.0524 88.4856 102.656 88.4856H115.061V88.4196C122.986 88.4196 127.731 82.7737 127.731 74.5757V52.2864H115.061V73.5155ZM137.385 88.4856H150.057V35.8667H137.385V88.4856Z" fill="#FAF9F6"/>
</g>
<defs>
<linearGradient id="paint0_linear_49_11002" x1="231.021" y1="0.36424" x2="127.563" y2="123.296" gradientUnits="userSpaceOnUse">
<stop stop-color="#1CE783"/>
<stop offset="1" stop-color="#08C668"/>
</linearGradient>
</defs>
</svg>
