<svg width="24" height="25" viewBox="0 0 24 25" fill="none" xmlns="http://www.w3.org/2000/svg">
<g id="Social icons" clip-path="url(#clip0_50_222)">
<path id="Vector" d="M22.2283 0.95459H1.77167C1.30179 0.95459 0.851161 1.14125 0.518909 1.4735C0.186657 1.80575 0 2.25638 0 2.72626V23.1829C0 23.6528 0.186657 24.1034 0.518909 24.4357C0.851161 24.7679 1.30179 24.9546 1.77167 24.9546H22.2283C22.6982 24.9546 23.1488 24.7679 23.4811 24.4357C23.8133 24.1034 24 23.6528 24 23.1829V2.72626C24 2.25638 23.8133 1.80575 23.4811 1.4735C23.1488 1.14125 22.6982 0.95459 22.2283 0.95459ZM7.15333 21.3996H3.545V9.93792H7.15333V21.3996ZM5.34667 8.34959C4.93736 8.34729 4.53792 8.22379 4.19873 7.99468C3.85955 7.76557 3.59584 7.44112 3.44088 7.06228C3.28591 6.68344 3.24665 6.26718 3.32803 5.86604C3.40941 5.46491 3.6078 5.09687 3.89816 4.80837C4.18851 4.51988 4.55782 4.32386 4.95947 4.24505C5.36112 4.16624 5.77711 4.20818 6.15495 4.36558C6.53279 4.52297 6.85554 4.78876 7.08247 5.1294C7.30939 5.47005 7.43032 5.87028 7.43 6.27959C7.43386 6.55362 7.38251 6.82563 7.27901 7.07939C7.17551 7.33316 7.02198 7.56349 6.82757 7.75666C6.63316 7.94982 6.40185 8.10187 6.14742 8.20374C5.893 8.30561 5.62067 8.35521 5.34667 8.34959ZM20.4533 21.4096H16.8467V15.1479C16.8467 13.3013 16.0617 12.7313 15.0483 12.7313C13.9783 12.7313 12.9283 13.5379 12.9283 15.1946V21.4096H9.32V9.94626H12.79V11.5346H12.8367C13.185 10.8296 14.405 9.62459 16.2667 9.62459C18.28 9.62459 20.455 10.8196 20.455 14.3196L20.4533 21.4096Z" fill="#E3E8EF"/>
</g>
<defs>
<clipPath id="clip0_50_222">
<rect width="24" height="24" fill="white" transform="translate(0 0.95459)"/>
</clipPath>
</defs>
</svg>
