<svg width="127" height="32" viewBox="0 0 127 32" fill="none" xmlns="http://www.w3.org/2000/svg">
<g id="logo">
<path id="Vector" d="M10.2911 21.0137H35.5318V31.2203H21.1879C19.4881 31.2203 17.8813 30.4522 16.8217 29.1351L10.2911 21.0137Z" fill="#D7FC6E"/>
<path id="Vector_2" d="M4.64705 21.0137H10.2917V31.2203H0V25.6223C0 23.0763 2.08188 21.0137 4.64705 21.0137Z" fill="#D7FC6E"/>
<path id="Vector_3" d="M18.7396 0.930135L35.5474 0.5L10.2943 21.0136L7.34911 17.3697C5.42007 14.9834 5.80835 11.4993 8.21243 9.5862L18.7396 0.930135Z" fill="#D7FC6E"/>
<g id="Skybeam">
<path d="M52.3509 9.83929C53.18 9.83929 53.9012 9.93471 54.5143 10.1256C55.1344 10.3093 55.6256 10.5073 55.9879 10.7193C56.3572 10.9314 56.5801 11.0692 56.6567 11.1328L55.3817 13.2852C55.2702 13.1933 55.0786 13.066 54.8069 12.9035C54.5422 12.7338 54.2217 12.5854 53.8454 12.4581C53.4692 12.3238 53.0616 12.2567 52.6227 12.2567C51.9886 12.2567 51.48 12.3804 51.0968 12.6278C50.7206 12.8681 50.5324 13.218 50.5324 13.6775C50.5324 13.9885 50.6335 14.2677 50.8355 14.5151C51.0376 14.7554 51.3337 14.9816 51.7239 15.1936C52.121 15.4057 52.6052 15.6283 53.1766 15.8616C53.6782 16.0595 54.1555 16.2892 54.6083 16.5508C55.0682 16.8123 55.4758 17.1198 55.8311 17.4732C56.1934 17.8266 56.4791 18.2366 56.6881 18.7031C56.9041 19.1696 57.0121 19.7033 57.0121 20.3041C57.0121 20.9756 56.8762 21.5623 56.6045 22.0642C56.3397 22.566 55.9705 22.9866 55.4967 23.3259C55.0299 23.6652 54.4934 23.9196 53.8872 24.0893C53.2811 24.2589 52.6436 24.3438 51.9747 24.3438C51.0689 24.3438 50.2538 24.2377 49.5291 24.0257C48.8115 23.8065 48.2297 23.5733 47.7838 23.3259C47.3379 23.0785 47.0766 22.9195 47 22.8488L48.3377 20.6116C48.4213 20.6752 48.5781 20.7777 48.808 20.9191C49.0449 21.0605 49.3306 21.2054 49.665 21.3538C50.0064 21.5022 50.3757 21.6295 50.7728 21.7355C51.1769 21.8415 51.588 21.8945 52.006 21.8945C52.7585 21.8945 53.3264 21.7355 53.7096 21.4174C54.0928 21.0993 54.2844 20.6858 54.2844 20.1769C54.2844 19.7952 54.1624 19.4594 53.9186 19.1696C53.6747 18.8798 53.3298 18.6148 52.8839 18.3744C52.445 18.127 51.919 17.8761 51.3058 17.6217C50.6927 17.3601 50.1214 17.0562 49.5919 16.7098C49.0693 16.3564 48.6478 15.9252 48.3273 15.4163C48.0068 14.9003 47.8465 14.2677 47.8465 13.5184C47.8465 12.7762 48.0521 12.1295 48.4631 11.5781C48.8812 11.0268 49.4316 10.5991 50.1144 10.2952C50.8042 9.99126 51.5497 9.83929 52.3509 9.83929Z" fill="white"/>
<path d="M64.6591 15.3845H67.7108L63.52 19.5407L68.0871 24.0893H64.9622L61.3984 20.4526V24.0893H58.7439V9.5H61.3984V18.5759L64.6591 15.3845Z" fill="white"/>
<path d="M73.1338 21.7249L75.6734 15.3845H78.2966L72.4336 28.5H69.7685L71.7438 24.0893L68.18 15.3845H70.8345L73.1338 21.7249Z" fill="white"/>
<path d="M79.3864 24.0893V9.5H82.041V16.7946C82.0967 16.5897 82.2605 16.3564 82.5322 16.0949C82.8039 15.8333 83.1627 15.6071 83.6086 15.4163C84.0615 15.2254 84.5736 15.13 85.1449 15.13C85.9671 15.13 86.6847 15.3315 87.2979 15.7344C87.9179 16.1373 88.3987 16.6886 88.7401 17.3884C89.0885 18.0811 89.2626 18.8657 89.2626 19.7422C89.2626 20.6187 89.0885 21.4068 88.7401 22.1066C88.3987 22.7993 87.9179 23.3471 87.2979 23.75C86.6847 24.1458 85.9671 24.3438 85.1449 24.3438C84.6363 24.3438 84.1625 24.2483 83.7236 24.0575C83.2916 23.8666 82.9258 23.6334 82.6262 23.3577C82.3336 23.082 82.1281 22.8205 82.0096 22.5731V24.0893H79.3864ZM86.6499 19.7422C86.6499 19.2545 86.5489 18.8268 86.3468 18.4593C86.1448 18.0846 85.873 17.7948 85.5316 17.5898C85.1902 17.3778 84.8105 17.2718 84.3925 17.2718C83.9535 17.2718 83.5564 17.3778 83.2011 17.5898C82.8457 17.8019 82.5635 18.0952 82.3545 18.4699C82.1455 18.8374 82.041 19.2615 82.041 19.7422C82.041 20.2228 82.1455 20.6505 82.3545 21.0251C82.5635 21.3927 82.8457 21.6825 83.2011 21.8945C83.5564 22.0995 83.9535 22.202 84.3925 22.202C84.8105 22.202 85.1902 22.0995 85.5316 21.8945C85.873 21.6895 86.1448 21.4033 86.3468 21.0357C86.5489 20.6611 86.6499 20.2299 86.6499 19.7422Z" fill="white"/>
<path d="M92.7935 20.3359C92.8144 20.7318 92.9189 21.0852 93.107 21.3962C93.2951 21.7072 93.5668 21.9511 93.9222 22.1278C94.2845 22.3045 94.7164 22.3929 95.2181 22.3929C95.671 22.3929 96.0681 22.3363 96.4095 22.2232C96.7579 22.1101 97.0505 21.9723 97.2874 21.8097C97.5313 21.6401 97.7124 21.4775 97.8309 21.322L98.9282 22.976C98.7331 23.2234 98.4719 23.4531 98.1444 23.6652C97.8239 23.8702 97.4128 24.0327 96.9112 24.1529C96.4165 24.2801 95.7964 24.3438 95.0509 24.3438C94.1103 24.3438 93.2847 24.1564 92.574 23.7818C91.8633 23.4072 91.3094 22.8664 90.9123 22.1596C90.5151 21.4528 90.3166 20.6116 90.3166 19.6362C90.3166 18.7879 90.4942 18.0246 90.8496 17.346C91.2049 16.6603 91.7205 16.1196 92.3963 15.7238C93.0791 15.3279 93.8978 15.13 94.8523 15.13C95.7511 15.13 96.528 15.3067 97.1829 15.6602C97.8448 16.0065 98.3569 16.5154 98.7192 17.1869C99.0815 17.8584 99.2626 18.6784 99.2626 19.6468C99.2626 19.7033 99.2592 19.8199 99.2522 19.9967C99.2522 20.1663 99.2452 20.2794 99.2313 20.3359H92.7935ZM96.7753 18.6713C96.7683 18.4451 96.6987 18.2013 96.5663 17.9397C96.4409 17.6782 96.2423 17.4555 95.9706 17.2718C95.6988 17.088 95.3365 16.9961 94.8837 16.9961C94.4308 16.9961 94.058 17.0844 93.7654 17.2612C93.4797 17.4379 93.2638 17.657 93.1174 17.9185C92.9711 18.173 92.8875 18.4239 92.8666 18.6713H96.7753Z" fill="white"/>
<path d="M107.796 24.0893V22.5731C107.733 22.7286 107.573 22.9477 107.315 23.2305C107.058 23.5132 106.709 23.7712 106.27 24.0045C105.838 24.2307 105.33 24.3438 104.744 24.3438C103.922 24.3438 103.194 24.1458 102.56 23.75C101.926 23.3471 101.428 22.7993 101.066 22.1066C100.71 21.4068 100.533 20.6187 100.533 19.7422C100.533 18.8657 100.71 18.0811 101.066 17.3884C101.428 16.6886 101.926 16.1373 102.56 15.7344C103.194 15.3315 103.922 15.13 104.744 15.13C105.316 15.13 105.81 15.229 106.228 15.4269C106.653 15.6177 106.995 15.8439 107.253 16.1055C107.517 16.3599 107.688 16.5897 107.765 16.7946V15.3845H110.398V24.0893H107.796ZM103.135 19.7422C103.135 20.2299 103.243 20.6611 103.459 21.0357C103.675 21.4033 103.961 21.6895 104.316 21.8945C104.671 22.0995 105.058 22.202 105.476 22.202C105.915 22.202 106.305 22.0995 106.646 21.8945C106.988 21.6825 107.256 21.3927 107.451 21.0251C107.653 20.6505 107.754 20.2228 107.754 19.7422C107.754 19.2615 107.653 18.8374 107.451 18.4699C107.256 18.0952 106.988 17.8019 106.646 17.5898C106.305 17.3778 105.915 17.2718 105.476 17.2718C105.058 17.2718 104.671 17.3778 104.316 17.5898C103.961 17.7948 103.675 18.0846 103.459 18.4593C103.243 18.8268 103.135 19.2545 103.135 19.7422Z" fill="white"/>
<path d="M123.802 15.13C124.443 15.13 125 15.2679 125.474 15.5435C125.955 15.8192 126.328 16.2433 126.592 16.8158C126.864 17.3813 127 18.1094 127 19V24.0893H124.387V19.4347C124.387 18.6996 124.279 18.127 124.063 17.7171C123.854 17.3071 123.454 17.1021 122.861 17.1021C122.527 17.1021 122.22 17.194 121.942 17.3778C121.663 17.5545 121.44 17.816 121.273 18.1624C121.113 18.5087 121.032 18.9328 121.032 19.4347V24.0893H118.587V19.4347C118.587 18.6996 118.465 18.127 118.221 17.7171C117.977 17.3071 117.591 17.1021 117.061 17.1021C116.72 17.1021 116.41 17.1905 116.131 17.3672C115.859 17.5439 115.643 17.8054 115.483 18.1518C115.33 18.4911 115.253 18.9187 115.253 19.4347V24.0893H112.619V15.3845H115.253V16.6568C115.33 16.4377 115.504 16.2115 115.776 15.9782C116.054 15.745 116.399 15.5471 116.81 15.3845C117.221 15.2148 117.664 15.13 118.138 15.13C118.653 15.13 119.082 15.2184 119.423 15.3951C119.764 15.5718 120.04 15.798 120.249 16.0737C120.465 16.3423 120.628 16.625 120.74 16.9219C120.837 16.6462 121.029 16.3705 121.315 16.0949C121.6 15.8192 121.959 15.5895 122.391 15.4057C122.823 15.2219 123.293 15.13 123.802 15.13Z" fill="white"/>
</g>
</g>
</svg>