<svg width="25" height="24" viewBox="0 0 25 24" fill="none" xmlns="http://www.w3.org/2000/svg">
<g id="map-01">
<path id="Icon" d="M5 14.5774C3.14864 15.3941 2 16.5322 2 17.791C2 20.2763 6.47715 22.291 12 22.291C17.5228 22.291 22 20.2763 22 17.791C22 16.5322 20.8514 15.3941 19 14.5774M18 8.29102C18 12.3547 13.5 14.291 12 17.291C10.5 14.291 6 12.3547 6 8.29102C6 4.97731 8.68629 2.29102 12 2.29102C15.3137 2.29102 18 4.97731 18 8.29102ZM13 8.29102C13 8.8433 12.5523 9.29102 12 9.29102C11.4477 9.29102 11 8.8433 11 8.29102C11 7.73873 11.4477 7.29102 12 7.29102C12.5523 7.29102 13 7.73873 13 8.29102Z" stroke="#959881" stroke-width="1.5" stroke-linecap="round" stroke-linejoin="round"/>
</g>
</svg>
