<svg width="147" height="42" viewBox="0 0 147 42" fill="none" xmlns="http://www.w3.org/2000/svg">
<g id="Max_logo 1" clip-path="url(#clip0_49_11000)">
<path id="path321" d="M23.0559 0.783691C19.0658 0.783691 15.0124 2.57604 9.81813 6.60656V1.80798H-0.000259399V40.1929H10.4517V16.3298C15.0122 12.6834 17.101 11.5309 18.8122 11.5309C20.8377 11.5309 22.1687 12.8112 22.1687 16.0095V40.1929H32.6181V16.2658C37.1786 12.6833 39.2068 11.5309 40.9789 11.5309C43.0069 11.5309 44.3352 12.8112 44.3352 16.0095V40.1929H54.7848V12.2993C54.7848 3.66211 49.9074 0.783691 45.2201 0.783691C41.2299 0.783691 37.1762 2.44797 31.8552 6.54251C30.1489 2.25346 26.4124 0.783691 23.0559 0.783691ZM76.0058 0.783691C65.6197 0.783691 57.0054 9.80494 57.0054 21.0003C57.0054 32.1956 65.6197 41.2172 76.0058 41.2172C81.1367 41.2172 85.5706 39.2994 88.9928 35.1384V40.1929H98.9375V1.80798H88.9928V6.86249C85.5706 2.70148 81.1367 0.783691 76.0058 0.783691ZM100.773 1.80798C105.08 8.58827 109.957 14.6669 115.658 20.7455C109.957 27.0777 105.08 33.6686 100.773 40.1929H113.376C116.352 35.3305 119.709 30.9159 123.574 26.7577C127.374 30.9159 130.54 35.3305 133.518 40.1929H146.249C141.879 33.4766 137.128 27.0777 131.427 20.7455C137.065 14.6669 141.879 8.39869 146.249 1.80798H133.772C130.669 6.67039 127.313 10.7646 123.574 14.7948C119.775 10.7646 116.418 6.67039 113.376 1.80798H100.773ZM77.5877 9.67712C83.7935 9.67712 88.7977 14.7317 88.7977 21.0003C88.7977 27.2689 83.7935 32.3237 77.5877 32.3237C71.3819 32.3237 66.3776 27.2713 66.3776 21.0003C66.3776 14.7292 71.3819 9.67712 77.5877 9.67712ZM77.5877 12.2352C72.837 12.2352 68.9735 16.1376 68.9735 21.0003C68.9735 25.863 72.837 29.7656 77.5877 29.7656C82.3383 29.7656 86.2015 25.863 86.2015 21.0003C86.2015 16.1376 82.3383 12.2352 77.5877 12.2352Z" fill="white"/>
</g>
<defs>
<clipPath id="clip0_49_11000">
<rect width="146.249" height="40.4335" fill="white" transform="translate(-3.8147e-05 0.783691)"/>
</clipPath>
</defs>
</svg>
