<svg width="241" height="124" viewBox="0 0 241 124" fill="none" xmlns="http://www.w3.org/2000/svg">
<g id="Frame 477">
<rect x="0.676147" y="0.0913086" width="240.125" height="123.273" rx="16.6932" fill="url(#paint0_linear_49_10981)"/>
<path id="Vector" d="M113.037 62.9728C112.69 62.8289 112.12 62.1909 113.068 60.4142L115.269 55.8216C115.336 55.6828 115.175 55.509 115.075 55.6269L113.15 57.5587C112.239 58.5077 110.694 61.1748 110.395 61.6684L108.057 65.5271C108.23 65.5216 108.376 65.6579 108.381 65.8313C108.383 65.8884 108.369 65.9448 108.341 65.9948L106.204 69.5783C105.682 70.467 106.62 71.0882 106.747 70.8837C110.106 65.4823 112.06 65.9135 112.06 65.9135L113.181 63.3212C113.241 63.1913 113.183 63.0383 113.053 62.9793C113.048 62.9769 113.043 62.9749 113.037 62.9728ZM120.674 17.8423C101.468 17.8423 85.898 33.3773 85.898 52.5409C85.8878 59.9595 88.2719 67.184 92.697 73.144C94.1559 72.5154 94.9666 71.5758 95.5456 70.8563L102.021 62.5935C102.157 62.4193 102.335 62.2823 102.539 62.195L103.513 61.7765L114.16 48.3017L115.704 47.0958L118.876 42.6901C118.958 42.5761 119.058 42.4758 119.172 42.3933L120.556 41.3893C120.898 41.1413 121.36 41.1374 121.706 41.3797L123.386 42.556C124.277 43.18 124.999 44.0143 125.488 44.9847L132.216 56.7754C132.326 57.0004 132.513 57.1789 132.742 57.2787C134.062 57.9341 134.868 58.0499 136.595 59.9215C137.4 60.7941 140.931 64.7341 145.879 70.8574C146.598 71.8398 147.561 72.6184 148.673 73.1172C153.084 67.1618 155.46 59.9479 155.45 52.5409C155.45 33.3772 139.881 17.8423 120.674 17.8423ZM95.2766 54.4534L93.0217 53.7227L91.6288 55.6355V53.2716L89.3739 52.5408L91.6288 51.8099V49.4453L93.0217 51.3585L95.2766 50.6278L93.8834 52.5409L95.2766 54.4534ZM94.742 62.1905L94.0096 64.4394L93.2772 62.1905H90.9073L92.8245 60.8005L92.0922 58.5517L94.0095 59.9417L95.9269 58.5517L95.1945 60.8005L97.1119 62.1905H94.742ZM95.1946 44.28L95.927 46.5287L94.0096 45.1387L92.0923 46.5287L92.8246 44.28L90.9075 42.8899H93.2774L94.0098 40.6411L94.7423 42.8899H97.1122L95.1946 44.28ZM99.0002 39.1929L97.608 37.2797L95.3532 38.0104L96.7462 36.0974L95.3532 34.1844L97.608 34.915L99.001 33.002V35.3667L101.256 36.0962L99.001 36.8271V39.1917L99.0002 39.1929ZM104.927 30.9146L104.195 33.1635L103.462 30.9147H101.092L103.01 29.5247L102.277 27.2757L104.195 28.6655L106.112 27.2755L105.38 29.5262L107.297 30.9162H104.927L104.927 30.9146ZM112.396 27.1175L111.003 29.0307V26.6666L108.748 25.9359L111.003 25.205V22.8404L112.396 24.7536L114.649 24.0229L113.256 25.9359L114.65 27.8489L112.396 27.1175ZM121.859 24.9499L122.592 27.1987L120.674 25.8087L118.757 27.1987L119.489 24.9509L117.571 23.5609H119.941L120.674 21.3121L121.406 23.5609H123.776L121.859 24.9499ZM130.345 26.6666V29.0312L128.953 27.118L126.698 27.8489L128.091 25.9359L126.698 24.0229L128.953 24.7536L130.346 22.8404V25.205L132.601 25.9359L130.345 26.6666ZM146.071 50.6278L148.326 51.3585L149.719 49.4453V51.8099L151.974 52.5408L149.719 53.2716V55.6361L148.326 53.7231L146.071 54.4538L147.466 52.5408L146.071 50.6278ZM137.154 33.1641L136.421 30.9151H134.051L135.968 29.5251L135.237 27.276L137.154 28.666L139.071 27.2763L138.34 29.5251L140.257 30.9151H137.887L137.154 33.1641ZM142.349 39.1934V36.829L140.094 36.098L142.349 35.3686V33.0028L143.741 34.9159L145.996 34.1852L144.603 36.0983L145.996 38.0112L143.741 37.2805L142.349 39.1934ZM146.606 42.8906L147.339 40.6418L148.072 42.8906H150.441L148.525 44.2807L149.258 46.5295L147.339 45.1394L145.422 46.5295L146.155 44.2807L144.236 42.8906H146.606ZM148.071 62.1905L147.339 64.4394L146.605 62.1905H144.236L146.154 60.8005L145.422 58.5517L147.338 59.9417L149.257 58.5517L148.524 60.8005L150.441 62.1905H148.071ZM133.271 72.594C133.438 72.3517 133.709 71.687 133.2 70.4552L131.661 66.326C131.452 65.7988 131.909 65.479 132.216 65.8256C132.216 65.8256 135.125 69.1719 135.876 70.5691L137.311 72.945C138.544 73.0245 141.95 73.1172 145.228 73.1172C144.897 72.7901 144.593 72.4386 144.315 72.0657C138.722 65.1463 135.174 61.2971 135.139 61.2591C134.005 60.0294 133.481 59.7931 132.617 59.4002C132.491 59.3434 132.356 59.2822 132.216 59.2158V60.2663C132.225 60.3372 132.174 60.4017 132.102 60.4101C132.045 60.4169 131.99 60.3848 131.968 60.3313L123.744 45.9171L123.721 45.8715C123.378 45.1926 122.873 44.6086 122.25 44.1715L121.447 43.6088L117.524 52.6397C117.993 52.6395 118.373 53.0187 118.374 53.4866C118.374 53.6024 118.35 53.7171 118.304 53.8234L114.679 62.1901H118.006C119.292 62.1901 120.566 62.4399 121.756 62.9264L122.633 63.2851C122.633 63.2851 119.987 68.7172 119.987 71.5775C119.991 72.0978 120.064 72.615 120.203 73.1162H126.302L126.02 71.4016C128.412 71.9348 130.833 72.3332 133.271 72.5949V72.594H133.271ZM86.2081 81.3959C86.2081 75.808 80.2708 73.1172 73.217 73.1172C65.6714 73.1172 58.7481 76.4543 56.207 81.6287C55.5057 83.0073 55.1413 84.5323 55.1432 86.0786C55.1112 87.4157 55.4818 88.7315 56.207 89.8559C57.2958 91.4608 59.2403 92.4695 62.0928 92.4695C65.5938 92.4695 68.3684 90.5545 68.3684 87.2173C68.3684 87.2173 68.4198 86.2865 67.3311 86.2865C66.4494 86.2865 66.2157 86.9071 66.2419 87.2173C66.3721 89.8304 64.8158 91.9263 62.041 91.9263C58.9303 91.9263 57.6327 89.2873 57.6327 86.4675C57.6327 80.6978 61.989 76.8683 66.5269 75.2128C68.6475 74.4134 70.8995 74.018 73.1662 74.0478C78.3004 74.0478 82.5012 76.0145 82.5012 81.2928C82.5012 85.6904 78.7933 89.4421 74.3586 89.7786L74.54 89.1838C75.4479 85.9494 76.5629 82.4052 78.3775 79.7919C78.482 79.6358 78.663 79.3778 78.8706 79.1194L78.6115 78.8086C78.2235 79.0436 77.8509 79.3027 77.4956 79.5846C68.9913 86.2082 68.733 104.836 57.4004 104.836C57.0101 104.836 56.6205 104.81 56.2337 104.758C53.8744 104.37 52.6289 102.792 52.6289 100.594C52.6289 100.154 52.7848 99.5584 52.7848 99.2225C52.8027 98.5976 52.3099 98.0767 51.6839 98.0585C51.6789 98.0584 51.6743 98.0584 51.6696 98.0584H51.5403C50.5292 98.0584 50.1142 98.8593 50.0882 99.9985C50.0108 103.284 52.4475 105.198 56.2081 105.561C56.6226 105.587 57.0376 105.612 57.4785 105.612C66.3203 105.612 71.7397 98.9375 74.0479 90.8393C75.2169 90.7024 76.3711 90.4603 77.4962 90.1155C81.5941 88.9757 86.2081 86.2346 86.2081 81.3959ZM170.432 83.3361H167.319L166.62 84.9663L165.401 87.7087H163.95L163.507 88.6403H165.012L163.196 92.6506C161.901 95.4706 159.878 98.2391 158.711 98.2391C158.452 98.2391 158.295 98.135 158.295 97.8772C158.295 97.6195 158.373 97.3849 158.659 96.6609C159.022 95.8065 159.619 94.565 160.06 93.6597C160.707 92.3403 161.745 90.2963 161.745 89.2873C161.745 88.2782 161.097 87.476 159.826 87.476C158.4 87.476 157.103 88.3307 155.909 89.5713L156.688 87.7087H153.759L151.372 93.142C150.414 95.0566 148.468 98.2389 147.248 98.2389C146.99 98.2389 146.885 98.0833 146.885 97.8249C146.91 97.5926 146.972 97.3655 147.067 97.1519C147.171 96.9192 148.597 93.5818 148.597 93.5818L151.19 87.6569H148.027L145.511 93.4261C144.735 95.2116 142.764 98.2386 141.492 98.2386C141.271 98.2602 141.073 98.0987 141.052 97.8771C141.052 97.8771 141.052 97.8771 141.052 97.8767V97.7726C141.052 97.4625 141.286 96.8929 141.467 96.4788L142.789 93.5816L145.511 87.6568H142.376L141.751 89.0021C141.286 89.9074 140.507 90.9682 139.263 90.9682C138.666 90.9682 138.382 90.736 138.252 90.5027C138.071 88.5105 136.799 87.4496 134.932 87.4496C132.339 87.4496 130.498 88.976 129.279 90.8391C128.48 92.1232 127.852 93.5059 127.412 94.9522C126.297 96.7897 125.131 98.213 124.197 98.213C123.964 98.213 123.808 98.0829 123.808 97.7729C123.808 97.4624 124.119 96.7641 124.223 96.5044L126.271 92.1582C126.842 90.8135 127.232 89.9337 127.232 89.0537C127.232 88.1222 126.585 87.449 125.52 87.449C124.042 87.449 122.433 88.3034 121.163 89.6999C121.206 89.4783 121.223 89.2523 121.215 89.0269C121.215 87.9918 120.697 87.4483 119.633 87.4483C118.285 87.4483 116.885 88.2512 115.614 89.6994L116.444 87.6804H113.591L111.18 93.1152C110.04 95.6768 108.199 98.213 107.161 98.213C106.928 98.213 106.772 98.0826 106.772 97.7726C106.772 97.2813 107.317 96.0652 107.524 95.5734L110.714 88.3553C110.947 87.8122 109.417 87.4754 107.472 87.4754C105.475 87.4754 103.427 88.459 101.923 89.7263C100.86 90.6055 100.082 91.0458 99.6925 91.0458C99.5654 91.0729 99.4402 90.992 99.4128 90.8654C99.4091 90.8482 99.4074 90.8307 99.4077 90.8132C99.4077 90.3732 100.471 89.1308 100.471 88.1738C100.471 87.7341 100.238 87.4492 99.6406 87.4492C98.5004 87.4492 97.1513 88.536 96.1661 89.674L96.996 87.6815H94.196L91.7849 93.1152C90.6437 95.6768 88.7507 98.342 87.7135 98.342C87.4799 98.342 87.325 98.213 87.325 97.9019C87.325 97.4105 87.8436 96.2209 88.1287 95.5992L91.3183 88.3553C91.5516 87.8122 90.0215 87.4754 88.0764 87.4754C85.1981 87.4754 82.3973 89.4158 80.9195 91.4082C79.2862 93.5548 78.1715 95.832 78.1452 97.6951C78.1198 99.1956 78.8967 100.127 80.4529 100.127C82.1905 100.127 83.5911 98.7559 84.3944 97.7207C84.3468 97.9255 84.3119 98.1328 84.29 98.3419C84.29 99.3762 84.705 100.127 85.9754 100.127C87.0902 100.127 88.5684 99.1953 89.7613 97.7205L88.8007 99.9199H91.8342L94.8165 93.1671C95.8041 90.9684 96.9191 89.8304 97.2292 89.8304C97.3005 89.8167 97.3695 89.8633 97.3833 89.9345C97.3848 89.9427 97.3856 89.9512 97.3856 89.9596C97.3856 90.1927 96.9191 90.8143 96.9191 91.3825C96.9191 91.9508 97.2293 92.3912 98.0603 92.3912C98.7075 92.3912 99.434 92.0806 100.082 91.6662C98.5527 93.7368 97.5145 95.9099 97.5145 97.6955C97.4889 99.1962 98.266 100.127 99.8225 100.127C101.456 100.127 102.986 98.5749 103.815 97.54C103.784 97.7803 103.767 98.0221 103.764 98.2643C103.764 99.2739 104.334 100.127 105.501 100.127C106.797 100.127 107.835 99.3248 109.131 97.7473L108.171 99.9205H111.282L114.134 93.478C115.379 90.6837 117.064 89.1825 117.894 89.1825C118.101 89.1612 118.287 89.3116 118.309 89.5188C118.309 89.5192 118.309 89.5197 118.309 89.5201V89.5971C118.274 89.9114 118.187 90.2176 118.05 90.5024L113.956 99.9462H117.146L120.05 93.3742C121.294 90.5545 122.669 89.1825 123.706 89.1825C124.017 89.1825 124.147 89.3388 124.147 89.6743C124.12 90.0345 124.023 90.3862 123.862 90.7104L121.061 96.6604C120.803 97.2332 120.645 97.8454 120.594 98.4711C120.594 99.3769 121.087 100.18 122.488 100.18C124.304 100.18 125.677 98.809 127.232 96.7651V97.2047C127.362 98.8346 128.27 100.258 130.681 100.258C133.533 100.258 135.842 98.2913 137.241 95.1614C137.77 94.061 138.113 92.88 138.254 91.6673C138.566 91.8254 138.915 91.8972 139.264 91.8758C139.735 91.881 140.2 91.7651 140.613 91.5389L140.12 92.5993C139.548 93.7897 138.926 95.1093 138.435 96.2226C138.125 96.8808 137.94 97.5912 137.891 98.3174C137.891 99.4295 138.513 100.232 139.782 100.232C141.052 100.232 142.791 99.042 144.035 97.3604H144.062C143.979 97.7081 143.935 98.0636 143.931 98.4209C143.931 99.3526 144.217 100.232 145.513 100.232C147.019 100.232 148.184 99.1455 149.326 97.774L148.365 99.9476H151.503L154.019 94.2556C155.445 91.0475 156.871 89.1075 158.193 89.1075C158.42 89.0994 158.614 89.2694 158.635 89.4954V89.5718C158.635 90.1156 157.857 91.5904 157.157 93.0649C156.508 94.4104 156.015 95.4448 155.679 96.2477C155.367 96.924 155.182 97.6515 155.134 98.3945C155.134 99.3771 155.679 100.128 156.898 100.128C158.713 100.128 160.554 98.3684 161.538 97.0486C161.316 97.6813 161.194 98.3444 161.176 99.0145C161.176 100.826 162.264 101.732 163.794 101.732C164.811 101.724 165.8 101.398 166.621 100.801C167.813 99.9724 168.774 98.7308 169.578 97.5924L169.033 97.0745C168.281 98.1355 167.45 99.1448 166.594 99.7658C166.143 100.146 165.577 100.365 164.986 100.387C164.339 100.387 163.924 100.05 163.924 99.2228C163.924 98.3958 164.312 97.282 164.909 95.7811C164.934 95.7558 165.79 93.8408 166.594 92.0044C167.269 90.4509 167.943 88.951 168.072 88.6406H170.121L170.536 87.709H168.513L170.432 83.3361ZM81.9825 98.2647C81.5419 98.2647 81.2307 98.1096 81.2307 97.5404C81.2564 96.0137 82.5266 93.2973 84.1094 91.1237C85.2241 89.623 86.676 88.5111 88.2319 88.5111L86.261 92.9085C84.7829 96.2208 83.1752 98.2647 81.9825 98.2647ZM101.379 98.2647C100.938 98.2647 100.627 98.1096 100.601 97.5404C100.627 96.0137 101.897 93.2973 103.48 91.1237C104.594 89.623 106.047 88.5111 107.602 88.5111L105.631 92.9086C104.128 96.2989 102.598 98.2649 101.378 98.2649L101.379 98.2647ZM135.814 89.7015C135.736 91.3826 134.258 95.4441 132.521 97.8771C131.822 98.86 131.224 99.1442 130.707 99.1442C129.98 99.1442 129.771 98.5488 129.876 97.6696C130.03 96.1433 131.302 92.5729 133.066 90.1149C133.87 89.0024 134.415 88.5366 135.037 88.5366C135.659 88.5367 135.841 89.0544 135.814 89.7015ZM184.21 87.7086L187.066 81.1282H183.686L180.83 87.7086H173.646L172.447 90.4681H179.633L176.777 97.0485H180.157L183.014 90.4681H190.198L191.394 87.7086H184.21Z" fill="white"/>
</g>
<defs>
<linearGradient id="paint0_linear_49_10981" x1="253.153" y1="0.0913111" x2="-71.7137" y2="154.442" gradientUnits="userSpaceOnUse">
<stop stop-color="#0064FF"/>
<stop offset="1" stop-color="#003C99"/>
</linearGradient>
</defs>
</svg>
