<svg xmlns="http://www.w3.org/2000/svg" width="159" height="16" viewBox="0 0 159 16" fill="none">
  <path d="M154.179 12.2158C151.533 12.2158 149.877 10.1638 149.877 7.64384C149.877 5.12384 151.533 3.08984 154.179 3.08984C156.825 3.08984 158.481 5.12384 158.481 7.64384C158.481 10.1638 156.825 12.2158 154.179 12.2158ZM154.179 11.0098C156.033 11.0098 157.059 9.42584 157.059 7.64384C157.059 5.87984 156.033 4.29584 154.179 4.29584C152.325 4.29584 151.281 5.87984 151.281 7.64384C151.281 9.42584 152.325 11.0098 154.179 11.0098Z" fill="#0067FF"/>
  <path d="M147.004 1.84827C146.518 1.84827 146.104 1.43427 146.104 0.930274C146.104 0.426274 146.518 0.0302734 147.004 0.0302734C147.508 0.0302734 147.922 0.426274 147.922 0.930274C147.922 1.43427 147.508 1.84827 147.004 1.84827ZM146.338 12.0003V3.30627H147.688V12.0003H146.338Z" fill="#0067FF"/>
  <path d="M141.92 11.1902C141.92 10.6502 142.37 10.2002 142.91 10.2002C143.45 10.2002 143.9 10.6502 143.9 11.1902C143.9 11.7302 143.45 12.1802 142.91 12.1802C142.37 12.1802 141.92 11.7302 141.92 11.1902Z" fill="#0067FF"/>
  <path d="M138.146 11.9998V6.09584C138.146 4.99784 137.66 4.29584 136.544 4.29584C135.644 4.29584 134.69 4.94384 134.24 5.62784V11.9998H132.89V6.09584C132.89 4.99784 132.422 4.29584 131.288 4.29584C130.406 4.29584 129.47 4.94384 129.002 5.64584V11.9998H127.652V3.30584H129.002V4.56584C129.362 4.00784 130.532 3.08984 131.81 3.08984C133.142 3.08984 133.898 3.80984 134.15 4.70984C134.636 3.91784 135.806 3.08984 137.066 3.08984C138.65 3.08984 139.496 3.97184 139.496 5.71784V11.9998H138.146Z" fill="#0067FF"/>
  <path d="M123.596 11.9998V11.0098C122.876 11.8018 121.886 12.2158 120.716 12.2158C119.24 12.2158 117.674 11.2258 117.674 9.33584C117.674 7.39184 119.24 6.47384 120.716 6.47384C121.904 6.47384 122.894 6.85184 123.596 7.66184V6.09584C123.596 4.92584 122.66 4.25984 121.4 4.25984C120.356 4.25984 119.51 4.63784 118.736 5.46584L118.106 4.52984C119.042 3.55784 120.158 3.08984 121.58 3.08984C123.416 3.08984 124.946 3.91784 124.946 6.02384V11.9998H123.596ZM123.596 10.1638V8.52584C123.074 7.80584 122.156 7.44584 121.202 7.44584C119.942 7.44584 119.06 8.23784 119.06 9.35384C119.06 10.4518 119.942 11.2438 121.202 11.2438C122.156 11.2438 123.074 10.8838 123.596 10.1638Z" fill="#0067FF"/>
  <path d="M107.514 7.64384C107.514 5.12384 109.314 3.08984 111.798 3.08984C114.426 3.08984 115.974 5.14184 115.974 7.75184V8.09384H108.936C109.044 9.73184 110.196 11.0998 112.068 11.0998C113.058 11.0998 114.066 10.7038 114.75 10.0018L115.398 10.8838C114.534 11.7478 113.364 12.2158 111.942 12.2158C109.368 12.2158 107.514 10.3618 107.514 7.64384ZM111.78 4.20584C109.926 4.20584 109.008 5.77184 108.936 7.10384H114.642C114.624 5.80784 113.76 4.20584 111.78 4.20584Z" fill="#0067FF"/>
  <path d="M97.6641 12.0001V-0.00585938H99.0141V4.62014C99.7161 3.66614 100.76 3.09014 101.948 3.09014C104.216 3.09014 105.818 4.89014 105.818 7.66214C105.818 10.4881 104.216 12.2161 101.948 12.2161C100.724 12.2161 99.6621 11.5861 99.0141 10.7041V12.0001H97.6641ZM99.0141 9.64214C99.4821 10.3981 100.544 11.0101 101.606 11.0101C103.37 11.0101 104.414 9.58814 104.414 7.66214C104.414 5.73614 103.37 4.29614 101.606 4.29614C100.544 4.29614 99.4821 4.94414 99.0141 5.70014V9.64214Z" fill="#0067FF"/>
  <path d="M88.5709 14.1777C88.7689 14.2677 89.0929 14.3217 89.3089 14.3217C89.9029 14.3217 90.2989 14.1237 90.6049 13.4037L91.1809 12.0897L87.5449 3.30566H89.0029L91.9009 10.4337L94.7809 3.30566H96.2569L91.9009 13.7637C91.3789 15.0237 90.4969 15.5097 89.3449 15.5277C89.0569 15.5277 88.6069 15.4737 88.3549 15.4017L88.5709 14.1777Z" fill="#0067FF"/>
  <path d="M85.5158 12.0001L82.3838 8.09414L80.9437 9.51614V12.0001H79.5938V-0.00585938H80.9437V7.93214L85.5158 3.30614H87.2258L83.3737 7.24814L87.2438 12.0001H85.5158Z" fill="#0067FF"/>
  <path d="M70.4707 10.8478L71.1727 9.87584C71.7487 10.5418 72.8467 11.1178 74.0347 11.1178C75.3667 11.1178 76.0867 10.5238 76.0867 9.67784C76.0867 8.72384 75.0247 8.41784 73.8547 8.12984C72.3787 7.78784 70.7047 7.39184 70.7047 5.59184C70.7047 4.24184 71.8747 3.08984 73.9447 3.08984C75.4207 3.08984 76.4647 3.64784 77.1667 4.34984L76.5367 5.28584C76.0147 4.65584 75.0607 4.18784 73.9447 4.18784C72.7567 4.18784 72.0187 4.72784 72.0187 5.50184C72.0187 6.34784 73.0087 6.61784 74.1427 6.88784C75.6547 7.22984 77.4007 7.66184 77.4007 9.58784C77.4007 11.0458 76.2307 12.2158 73.9807 12.2158C72.5587 12.2158 71.3527 11.7838 70.4707 10.8478Z" fill="#0067FF"/>
  <path d="M56.4102 7.60763C56.4102 3.71963 59.8122 0.515625 63.5562 0.515625C66.9582 0.515625 69.2262 3.07163 69.2262 6.22163C69.2262 9.04763 67.6242 10.4696 66.1122 10.4696C65.1041 10.4696 64.5282 9.76762 64.4742 9.01162L64.4562 8.90363C63.8262 9.78563 62.7642 10.4696 61.6122 10.4696C59.9382 10.4696 58.8582 9.28163 58.8582 7.53563C58.8582 5.03363 60.9642 3.01762 63.0882 3.01762C64.2582 3.01762 65.0501 3.64762 65.3922 4.42162L65.6262 3.30562H66.8502L65.8242 8.18363C65.8062 8.29163 65.7882 8.45362 65.7882 8.56162C65.7882 9.17362 66.1662 9.49762 66.6342 9.49762C67.3362 9.49762 68.5782 8.70563 68.5782 6.22163C68.5782 3.26963 66.5442 1.12762 63.4842 1.12762C60.0102 1.12762 57.0222 4.20562 57.0222 7.57162C57.0222 10.4696 59.2002 12.6656 62.1882 12.6656C63.4662 12.6656 64.5642 12.2696 65.5362 11.6576L65.8602 12.1256C64.7442 12.8456 63.4482 13.2596 62.1162 13.2596C58.8402 13.2596 56.4102 10.7936 56.4102 7.60763ZM64.6542 7.84163L65.1762 5.35763C64.9782 4.79963 64.3842 4.02563 63.3222 4.02563C61.5222 4.02563 60.1362 5.73562 60.1362 7.46362C60.1362 8.61563 60.8202 9.46163 61.9722 9.46163C63.2142 9.46163 64.1322 8.59762 64.6542 7.84163Z" fill="#0067FF"/>
  <path d="M48.0358 14.1777C48.2338 14.2677 48.5578 14.3217 48.7738 14.3217C49.3678 14.3217 49.7638 14.1237 50.0698 13.4037L50.6458 12.0897L47.0098 3.30566H48.4678L51.3658 10.4337L54.2458 3.30566H55.7218L51.3658 13.7637C50.8438 15.0237 49.9618 15.5097 48.8098 15.5277C48.5218 15.5277 48.0718 15.4737 47.8198 15.4017L48.0358 14.1777Z" fill="#0067FF"/>
  <path d="M38.8887 7.64384C38.8887 5.06984 40.6347 3.08984 43.2267 3.08984C44.8107 3.08984 45.7467 3.73784 46.4127 4.60184L45.5127 5.42984C44.9367 4.63785 44.1987 4.29584 43.2987 4.29584C41.4447 4.29584 40.2927 5.71784 40.2927 7.64384C40.2927 9.56985 41.4447 11.0098 43.2987 11.0098C44.1987 11.0098 44.9367 10.6498 45.5127 9.87584L46.4127 10.7038C45.7467 11.5678 44.8107 12.2158 43.2267 12.2158C40.6347 12.2158 38.8887 10.2358 38.8887 7.64384Z" fill="#0067FF"/>
  <path d="M35.3361 11.9998V11.0098C34.6161 11.8018 33.6261 12.2158 32.4561 12.2158C30.9801 12.2158 29.4141 11.2258 29.4141 9.33584C29.4141 7.39184 30.9801 6.47384 32.4561 6.47384C33.6441 6.47384 34.6341 6.85184 35.3361 7.66184V6.09584C35.3361 4.92584 34.4001 4.25984 33.1401 4.25984C32.0961 4.25984 31.2501 4.63784 30.4761 5.46584L29.8461 4.52984C30.7821 3.55784 31.8981 3.08984 33.3201 3.08984C35.1561 3.08984 36.6861 3.91784 36.6861 6.02384V11.9998H35.3361ZM35.3361 10.1638V8.52584C34.8141 7.80584 33.8961 7.44584 32.9421 7.44584C31.6821 7.44584 30.8001 8.23784 30.8001 9.35384C30.8001 10.4518 31.6821 11.2438 32.9421 11.2438C33.8961 11.2438 34.8141 10.8838 35.3361 10.1638Z" fill="#0067FF"/>
  <path d="M23.3993 11.9997L19.7812 3.30566H21.2393L24.1372 10.4337L27.0173 3.30566H28.4932L24.8752 11.9997H23.3993Z" fill="#0067FF"/>
  <path d="M17.6988 1.84827C17.2128 1.84827 16.7988 1.43427 16.7988 0.930274C16.7988 0.426274 17.2128 0.0302734 17.6988 0.0302734C18.2028 0.0302734 18.6168 0.426274 18.6168 0.930274C18.6168 1.43427 18.2028 1.84827 17.6988 1.84827ZM17.0328 12.0003V3.30627H18.3828V12.0003H17.0328Z" fill="#0067FF"/>
  <path d="M11.0918 12V3.30598H12.4418V4.70998C13.1438 3.79198 14.1518 3.12598 15.3398 3.12598V4.51198C15.1778 4.47598 15.0158 4.45798 14.7998 4.45798C13.9718 4.45798 12.8378 5.14198 12.4418 5.84398V12H11.0918Z" fill="#0067FF"/>
  <path d="M2.10586 15.3118H0.755859V3.30584H2.10586V4.60184C2.73586 3.71984 3.81586 3.08984 5.03986 3.08984C7.32586 3.08984 8.90986 4.81784 8.90986 7.64384C8.90986 10.4518 7.32586 12.2158 5.03986 12.2158C3.85186 12.2158 2.80786 11.6578 2.10586 10.6858V15.3118ZM7.48786 7.64384C7.48786 5.71784 6.44386 4.29584 4.69786 4.29584C3.63586 4.29584 2.57386 4.92584 2.10586 5.68184V9.60585C2.57386 10.3618 3.63586 11.0098 4.69786 11.0098C6.44386 11.0098 7.48786 9.56985 7.48786 7.64384Z" fill="#0067FF"/>
</svg>