<svg width="315" height="36" viewBox="0 0 315 36" fill="none" xmlns="http://www.w3.org/2000/svg">
<path d="M27.827 15.5357C27.0879 14.2518 24.6162 12.706 22.7144 11.6049L6.08462 1.52585C4.15581 0.276555 1.3473 0.97339 0.103776 2.81943C0.057597 2.88884 0.0258863 2.96686 0.0105596 3.04881C-0.00476709 3.13076 -0.0033938 3.21496 0.0145778 3.29637C0.0325493 3.37778 0.0667589 3.45473 0.115161 3.52261C0.163563 3.59049 0.225163 3.64791 0.296272 3.69143L23.8366 17.9535L27.827 15.5357Z" fill="url(#paint0_radial_418_7724)"/>
<path d="M28.5432 17.9553C28.5446 17.0961 28.295 16.2551 27.8252 15.5356C18.7143 21.0603 9.38981 26.7158 0.298219 32.2231C0.227109 32.2666 0.16551 32.3241 0.117108 32.3919C0.0687055 32.4598 0.0344958 32.5368 0.0165243 32.6182C-0.00144726 32.6996 -0.0028088 32.7838 0.0125179 32.8657C0.0278446 32.9477 0.0595435 33.0257 0.105723 33.0951C1.34732 34.9354 4.15969 35.6322 6.0885 34.3829C5.85751 34.5235 10.9875 31.4166 23.1263 24.0555C25.7732 22.4424 28.5412 21.1488 28.5432 17.9553Z" fill="url(#paint1_radial_418_7724)"/>
<path d="M6.08472 22.4077C8.54479 22.4077 10.5391 20.4135 10.5391 17.9534C10.5391 15.4933 8.54479 13.499 6.08472 13.499C3.62465 13.499 1.63037 15.4933 1.63037 17.9534C1.63037 20.4135 3.62465 22.4077 6.08472 22.4077Z" fill="#7573FC"/>
<path d="M60.048 22.0764V22.1459C60.048 26.5954 56.4411 29.2422 51.3028 29.2422C47.7926 29.2607 44.3863 28.0866 41.6743 25.9233C41.6069 25.869 41.5539 25.7998 41.5195 25.7216C41.4852 25.6433 41.4706 25.5583 41.477 25.4735C41.4833 25.3886 41.5104 25.3065 41.556 25.2339C41.6016 25.1613 41.6643 25.1003 41.7391 25.0559L43.5348 24.0015C43.882 23.7991 44.2796 23.6929 44.6846 23.6943C45.0896 23.6958 45.4864 23.8049 45.832 24.0098C47.5003 25.0304 49.4349 25.5658 51.4069 25.5525C54.0655 25.5525 55.7436 24.3624 55.7436 22.5614V22.4952C55.7436 20.7968 54.7648 19.8798 50.2165 18.8634C45.0066 17.6402 42.0665 16.1454 42.0665 11.7655V11.696C42.0665 7.62392 45.5642 4.80493 50.4229 4.80493C53.6784 4.80493 56.3218 5.6839 58.6445 7.3061C58.7192 7.35737 58.7797 7.42587 58.8204 7.50542C58.8611 7.58498 58.8808 7.6731 58.8778 7.76189C58.8748 7.85067 58.849 7.93733 58.803 8.01409C58.7569 8.09084 58.6919 8.15528 58.6138 8.20162L56.6134 9.37854C56.3042 9.56235 55.9528 9.66858 55.5907 9.68765C55.2287 9.70672 54.8675 9.63804 54.5396 9.48779C53.2409 8.85716 51.8118 8.52042 50.3598 8.50288C47.8392 8.50288 46.3692 9.76091 46.3692 11.3169V11.3848C46.3692 13.2155 47.4879 14.0333 52.176 15.1158C57.3535 16.3408 60.048 18.1401 60.048 22.0764Z" fill="#121926"/>
<path d="M74.7107 7.39164V29.0603C74.7107 29.1086 74.6889 29.1549 74.65 29.1891C74.6111 29.2232 74.5583 29.2424 74.5033 29.2424H70.0326C70.0052 29.2426 69.978 29.2381 69.9526 29.229C69.9272 29.22 69.9042 29.2066 69.8847 29.1897C69.8652 29.1727 69.8498 29.1526 69.8392 29.1304C69.8287 29.1082 69.8232 29.0843 69.8232 29.0603V5.35585C69.8233 5.27335 69.8445 5.19192 69.8852 5.11757C69.9259 5.04321 69.9851 4.97782 70.0584 4.92621C70.1317 4.8746 70.2172 4.83808 70.3087 4.81934C70.4002 4.80061 70.4954 4.80014 70.5871 4.81796L72.7507 5.2435C73.3069 5.35263 73.8041 5.62487 74.1604 6.01537C74.5167 6.40586 74.7108 6.89129 74.7107 7.39164Z" fill="#121926"/>
<path d="M275.097 7.38213V29.0609C275.097 29.1092 275.074 29.1554 275.035 29.1894C274.996 29.2234 274.943 29.2424 274.888 29.2424H270.419C270.392 29.2426 270.364 29.2381 270.339 29.2291C270.314 29.2201 270.291 29.2067 270.271 29.1899C270.252 29.173 270.236 29.1529 270.226 29.1308C270.215 29.1087 270.21 29.0849 270.21 29.0609V5.35212C270.21 5.27008 270.231 5.18915 270.272 5.11528C270.313 5.04141 270.372 4.97647 270.446 4.92523C270.519 4.874 270.604 4.83776 270.695 4.81919C270.787 4.80062 270.882 4.80018 270.973 4.81791L273.138 5.24189C273.694 5.35061 274.191 5.62186 274.547 6.01092C274.903 6.39998 275.097 6.88362 275.097 7.38213Z" fill="#121926"/>
<path d="M121.631 19.2125V4.99838C121.631 4.94846 121.65 4.90059 121.684 4.86529C121.718 4.82999 121.764 4.81016 121.812 4.81016H125.305C125.448 4.81062 125.585 4.87032 125.687 4.97616C125.788 5.08201 125.845 5.22537 125.845 5.37482V19.033C125.845 23.6793 128.142 26.1784 131.911 26.1784C135.648 26.1784 137.942 23.8204 137.942 19.2073V5.3696C137.942 5.21984 137.999 5.07621 138.1 4.97032C138.202 4.86442 138.34 4.80493 138.483 4.80493H141.978C142.026 4.80493 142.072 4.82477 142.106 4.86006C142.14 4.89536 142.159 4.94324 142.159 4.99316V18.9929C142.159 26.4625 138.116 30.2199 131.846 30.2199C125.606 30.2199 121.631 26.4625 121.631 19.2073V19.2125Z" fill="#121926"/>
<path d="M170.504 25.5146V29.0603C170.504 29.0843 170.499 29.1082 170.49 29.1304C170.481 29.1526 170.468 29.1727 170.451 29.1897C170.434 29.2066 170.414 29.22 170.392 29.229C170.37 29.2381 170.347 29.2426 170.323 29.2424H153.088C153.04 29.2424 152.995 29.2232 152.961 29.1891C152.928 29.1549 152.909 29.1086 152.909 29.0603V5.35526C152.908 5.25769 152.934 5.16177 152.982 5.07743C153.03 4.99308 153.1 4.92337 153.183 4.87548C153.267 4.82759 153.362 4.80327 153.458 4.80502C153.554 4.80677 153.647 4.83454 153.729 4.88545L156.091 6.34084C156.409 6.53691 156.672 6.81301 156.854 7.14249C157.036 7.47197 157.132 7.8437 157.132 8.22179V25.3307H170.331C170.378 25.3329 170.422 25.3533 170.454 25.3875C170.486 25.4217 170.504 25.4673 170.504 25.5146Z" fill="#121926"/>
<path d="M87.598 4.80493H91.5895C91.6796 4.80497 91.7683 4.82822 91.8473 4.87254C91.9264 4.91686 91.9933 4.98083 92.0418 5.05855L99.1484 16.3573L106.255 5.05855C106.303 4.98083 106.37 4.91686 106.449 4.87254C106.528 4.82822 106.617 4.80497 106.707 4.80493H110.699C110.746 4.80493 110.792 4.8243 110.826 4.85878C110.859 4.89325 110.878 4.94001 110.878 4.98876V29.0586C110.878 29.1073 110.859 29.1541 110.826 29.1886C110.792 29.2231 110.746 29.2424 110.699 29.2424H106.872C106.824 29.2424 106.779 29.2231 106.745 29.1886C106.711 29.1541 106.692 29.1073 106.692 29.0586V11.7139L99.5309 22.5616C99.4815 22.636 99.415 22.6969 99.3373 22.739C99.2596 22.7811 99.1731 22.8031 99.0852 22.8031C98.9972 22.8031 98.9107 22.7811 98.833 22.739C98.7553 22.6969 98.6888 22.636 98.6394 22.5616L91.5462 11.7888V29.0586C91.5464 29.0827 91.542 29.1065 91.5332 29.1288C91.5243 29.1511 91.5112 29.1714 91.4947 29.1885C91.4782 29.2056 91.4585 29.2191 91.4368 29.2284C91.4151 29.2377 91.3918 29.2424 91.3683 29.2424H87.598C87.5503 29.2424 87.5047 29.2231 87.471 29.1886C87.4373 29.1541 87.4184 29.1073 87.4184 29.0586V4.98876C87.4188 4.94015 87.4379 4.89365 87.4714 4.85927C87.505 4.82489 87.5505 4.80538 87.598 4.80493Z" fill="#121926"/>
<path d="M178.506 4.80493H182.498C182.588 4.8051 182.676 4.82842 182.755 4.87274C182.833 4.91706 182.9 4.98096 182.948 5.05855L190.055 16.3573L197.163 5.05855C197.212 4.98072 197.278 4.91667 197.357 4.87233C197.437 4.828 197.525 4.80481 197.615 4.80493H201.607C201.631 4.80493 201.654 4.80969 201.676 4.81893C201.697 4.82816 201.717 4.84171 201.734 4.85878C201.751 4.87585 201.764 4.89611 201.773 4.91842C201.782 4.94072 201.787 4.96462 201.787 4.98877V29.0586C201.787 29.0827 201.782 29.1066 201.773 29.1289C201.764 29.1512 201.751 29.1715 201.734 29.1886C201.717 29.2056 201.697 29.2192 201.676 29.2284C201.654 29.2377 201.631 29.2424 201.607 29.2424H197.785C197.762 29.2424 197.738 29.2377 197.716 29.2284C197.695 29.2192 197.675 29.2056 197.658 29.1886C197.641 29.1715 197.628 29.1512 197.619 29.1289C197.61 29.1066 197.605 29.0827 197.605 29.0586V11.7139L190.454 22.5599C190.405 22.6343 190.338 22.6952 190.261 22.7373C190.183 22.7794 190.096 22.8014 190.008 22.8014C189.92 22.8014 189.834 22.7794 189.756 22.7373C189.678 22.6952 189.612 22.6343 189.563 22.5599L182.469 11.7871V29.0586C182.469 29.1073 182.45 29.1541 182.417 29.1886C182.383 29.2231 182.337 29.2424 182.29 29.2424H178.506C178.459 29.2424 178.413 29.2231 178.379 29.1886C178.345 29.1541 178.327 29.1073 178.327 29.0586V4.98877C178.327 4.94001 178.345 4.89325 178.379 4.85878C178.413 4.8243 178.459 4.80493 178.506 4.80493Z" fill="#121926"/>
<path d="M231.099 26.0696L230.766 27.5216C230.654 28.0099 230.376 28.4464 229.977 28.7592C229.577 29.072 229.081 29.2425 228.569 29.2424H212.727C212.678 29.2424 212.63 29.2233 212.595 29.1892C212.56 29.1551 212.54 29.1087 212.539 29.0603V4.98876C212.54 4.94015 212.56 4.89365 212.595 4.85927C212.63 4.82489 212.678 4.80538 212.727 4.80493H230.367C230.452 4.80502 230.535 4.82362 230.611 4.85934C230.687 4.89507 230.754 4.94702 230.807 5.01138C230.86 5.07573 230.897 5.15084 230.916 5.23118C230.935 5.31151 230.936 5.39503 230.917 5.47557L230.587 6.92238C230.475 7.41067 230.197 7.84721 229.797 8.16003C229.398 8.47285 228.901 8.64329 228.39 8.64324H216.933V14.9973H228.762C228.847 14.9971 228.93 15.0155 229.006 15.051C229.082 15.0865 229.149 15.1383 229.202 15.2026C229.255 15.2668 229.292 15.3418 229.311 15.4221C229.33 15.5023 229.331 15.5858 229.312 15.6662L228.98 17.1147C228.868 17.603 228.59 18.0396 228.19 18.3524C227.791 18.6652 227.295 18.8356 226.783 18.8356H216.933V25.399H230.548C230.633 25.3991 230.716 25.4177 230.792 25.4534C230.868 25.4891 230.935 25.5411 230.988 25.6055C231.041 25.6698 231.078 25.7449 231.097 25.8253C231.116 25.9056 231.117 25.9891 231.099 26.0696Z" fill="#121926"/>
<path d="M249.178 4.80493H240.095C240.046 4.80538 239.998 4.82495 239.964 4.85938C239.929 4.8938 239.91 4.9403 239.91 4.98876V29.0603C239.91 29.1086 239.929 29.1549 239.964 29.1891C239.999 29.2232 240.046 29.2424 240.095 29.2424H249.178C256.992 29.2424 262.392 23.8994 262.392 17.0228V16.953C262.392 10.0747 256.992 4.80493 249.178 4.80493ZM257.808 17.0926C257.808 21.8739 254.396 25.3309 249.178 25.3309H244.274V8.71303H249.178C254.396 8.71303 257.808 12.2381 257.808 17.0228V17.0926Z" fill="#121926"/>
<path d="M297.169 4.82216L294.275 5.46141C293.937 5.53829 293.622 5.69258 293.355 5.91193C293.088 6.13128 292.876 6.40961 292.737 6.72464L282.933 28.988C282.92 29.0159 282.915 29.0464 282.918 29.0768C282.921 29.1071 282.931 29.1363 282.948 29.1616C282.965 29.187 282.988 29.2076 283.015 29.2218C283.043 29.2359 283.073 29.243 283.104 29.2424H286.877C286.986 29.2431 287.094 29.2111 287.185 29.1507C287.277 29.0903 287.348 29.0041 287.389 28.9033L289.771 23.3586H301.376L303.725 28.8999C303.767 29.0006 303.838 29.0866 303.929 29.147C304.021 29.2074 304.128 29.2394 304.238 29.239H308.146C308.177 29.2396 308.207 29.2325 308.234 29.2184C308.261 29.2043 308.285 29.1836 308.302 29.1582C308.319 29.1329 308.329 29.1037 308.332 29.0734C308.334 29.043 308.329 29.0125 308.317 28.9847L297.81 5.13415C297.759 5.01483 297.666 4.9178 297.548 4.86058C297.43 4.80337 297.296 4.78974 297.169 4.82216ZM291.337 19.574L295.545 9.83609L299.787 19.574H291.337Z" fill="#121926"/>
<path d="M314.2 4.79358C314.2 6.98232 312.267 8.71502 309.817 8.71502C307.367 8.71502 305.403 6.98232 305.403 4.79358C305.403 2.60483 307.362 0.89502 309.841 0.89502C312.267 0.89502 314.195 2.60788 314.195 4.79358M306.491 4.79358C306.491 6.52932 307.926 7.9051 309.841 7.9051C311.683 7.93103 313.103 6.53237 313.103 4.81951C313.103 3.08224 311.691 1.679 309.789 1.679C307.935 1.679 306.499 3.08224 306.499 4.79358M309.136 6.81302H308.144V2.91599C308.688 2.84023 309.238 2.80047 309.789 2.79702C310.599 2.79702 310.961 2.91599 311.252 3.10207C311.395 3.19756 311.509 3.32344 311.586 3.46864C311.662 3.61385 311.699 3.77394 311.691 3.93486C311.691 4.41074 311.303 4.71884 310.809 4.86221V4.9095C311.224 5.02847 311.433 5.33809 311.564 5.86126C311.619 6.18914 311.724 6.50845 311.875 6.80997H310.832C310.703 6.66812 310.624 6.33714 310.497 5.86126C310.418 5.45554 310.162 5.26641 309.61 5.26641H309.139L309.136 6.81302ZM309.162 4.62885H309.633C310.182 4.62885 310.624 4.4626 310.624 4.05688C310.624 3.69844 310.336 3.46203 309.712 3.46203C309.527 3.45756 309.343 3.47395 309.162 3.51084V4.62885Z" fill="#121926"/>
<defs>
<radialGradient id="paint0_radial_418_7724" cx="0" cy="0" r="1" gradientUnits="userSpaceOnUse" gradientTransform="translate(1.48204 2.03019) scale(28.2469 28.2469)">
<stop stop-color="#B3253D"/>
<stop offset="0.5" stop-color="#413FB0"/>
<stop offset="1" stop-color="#1B428C"/>
</radialGradient>
<radialGradient id="paint1_radial_418_7724" cx="0" cy="0" r="1" gradientUnits="userSpaceOnUse" gradientTransform="translate(-1.98093 23.888) scale(30.6781 30.6781)">
<stop stop-color="#FF4F6C"/>
<stop offset="0.5" stop-color="#7573FC"/>
<stop offset="1" stop-color="#14BDEB"/>
</radialGradient>
</defs>
</svg>
