<svg width="127" height="32" viewBox="0 0 127 32" fill="none" xmlns="http://www.w3.org/2000/svg">
<path d="M33.148 16.8126C31.9595 16.6456 31.0318 16.2962 30.3611 15.7604C29.6942 15.2246 29.3589 14.5296 29.3589 13.6755C29.3589 12.6155 29.7948 11.7536 30.6666 11.0936C31.5385 10.4335 32.7345 10.1035 34.2546 10.1035C35.3649 10.1035 36.3672 10.4607 37.2576 11.179C38.1481 11.8934 38.748 12.666 39.0497 13.493L37.4625 14.4015C37.3023 13.8774 36.8962 13.3532 36.2442 12.833C35.5885 12.3088 34.8992 12.0487 34.1726 12.0487C33.2859 12.0487 32.5929 12.2001 32.0899 12.5029C31.5869 12.8058 31.3373 13.1436 31.3373 13.5163C31.3373 13.8618 31.5571 14.1491 31.993 14.3821C32.429 14.6151 32.9431 14.782 33.5393 14.8791L35.581 15.2091C36.7323 15.3877 37.6414 15.7721 38.3158 16.3661C38.9901 16.9601 39.3255 17.6396 39.3255 18.4122C39.3255 19.5692 38.9044 20.4855 38.0661 21.161C37.2278 21.8366 36.0989 22.1744 34.6868 22.1744C33.379 22.1744 32.2203 21.8405 31.2069 21.1727C30.1972 20.5049 29.5005 19.6663 29.1167 18.6646L30.7039 17.5076C30.9535 18.2219 31.4677 18.8509 32.2389 19.3867C33.0139 19.9225 33.841 20.1904 34.7278 20.1904C35.5214 20.1904 36.1511 20.0584 36.6205 19.7983C37.09 19.5381 37.3247 19.1654 37.3247 18.684C37.3247 18.3268 37.1347 18.0006 36.7584 17.7017C36.3821 17.4066 35.8753 17.2086 35.242 17.1115L33.1406 16.8242L33.148 16.8126Z" fill="#00152A"/>
<path d="M42.8016 18.2998V21.7902H40.7412V6.29883H42.8016V15.6364L47.6787 10.4299H50.2942L45.7338 15.221L50.9463 21.7902H48.4872L44.3851 16.607L42.7979 18.2998H42.8016Z" fill="#00152A"/>
<path d="M51.0688 10.4297H53.3304L56.5831 20.8L59.8543 10.4297H62.1159L58.487 21.7901L57.2165 25.9211H54.9959L56.285 21.7901H54.6978L51.0688 10.4297Z" fill="#00152A"/>
<path d="M65.2435 21.7902H63.1831V6.29883H65.2435V11.9169C66.2495 10.7172 67.5684 10.1193 69.2078 10.1193C70.8471 10.1193 72.1288 10.6745 73.172 11.781C74.2153 12.8914 74.7369 14.3241 74.7369 16.0868C74.7369 17.8494 74.2153 19.286 73.172 20.3925C72.1288 21.5029 70.8061 22.0543 69.2078 22.0543C67.6094 22.0543 66.2457 21.4563 65.2435 20.2566V21.7864V21.7902ZM71.637 13.3301C70.903 12.5653 70.02 12.1848 68.9917 12.1848C67.9633 12.1848 67.0803 12.5653 66.3538 13.3301C65.6273 14.095 65.2621 15.0152 65.2621 16.0868C65.2621 17.2282 65.6235 18.1678 66.3426 18.8977C67.0617 19.6277 67.9447 19.9926 68.9879 19.9926C70.0312 19.9926 70.9179 19.6277 71.6445 18.8977C72.371 18.1678 72.7361 17.2321 72.7361 16.0868C72.7361 15.0113 72.371 14.095 71.637 13.3301Z" fill="#00152A"/>
<path d="M85.6401 17.4921L87.3652 18.5054C86.8771 19.5926 86.1729 20.4584 85.2526 21.099C84.3323 21.7396 83.3115 22.058 82.19 22.058C80.5097 22.058 79.105 21.4873 77.9686 20.3419C76.8323 19.2004 76.2622 17.7794 76.2622 16.0866C76.2622 14.3938 76.8099 12.9728 77.909 11.8313C79.0044 10.6899 80.3681 10.1152 81.9925 10.1152C83.617 10.1152 84.9806 10.686 86.076 11.8313C87.1714 12.9728 87.7229 14.3938 87.7229 16.0866C87.7229 16.2652 87.7117 16.436 87.693 16.5913C87.6744 16.7505 87.6483 16.8631 87.6222 16.933L87.6036 17.0378H78.3449C78.5424 17.9347 79.0007 18.6491 79.7123 19.1849C80.424 19.7207 81.2511 19.9925 82.19 19.9925C82.9426 19.9925 83.6282 19.7673 84.2429 19.3208C84.8577 18.8743 85.3234 18.2647 85.6401 17.4921ZM78.3263 15.2402H85.6401C85.4538 14.3589 85.0216 13.629 84.3435 13.0504C83.6617 12.4719 82.8793 12.1846 81.9925 12.1846C81.1058 12.1846 80.3196 12.4719 79.6341 13.0504C78.9485 13.629 78.5089 14.3589 78.3263 15.2402Z" fill="#00152A"/>
<path d="M97.7546 14.9333C97.7546 14.2033 97.4789 13.5549 96.9237 12.992C96.3686 12.429 95.575 12.1456 94.5467 12.1456C93.7791 12.1456 93.1048 12.3863 92.5235 12.8677C91.9423 13.3492 91.484 13.9898 91.1562 14.7896L89.4311 13.7763C89.9453 12.662 90.642 11.7651 91.5213 11.0895C92.4006 10.414 93.4066 10.0762 94.5429 10.0762C96.2084 10.0762 97.505 10.5149 98.429 11.3885C99.353 12.2621 99.815 13.4501 99.815 14.9527V21.7704H97.7546V20.0544C97.4379 20.6484 96.9051 21.1298 96.1599 21.4987C95.4148 21.8714 94.6249 22.0578 93.7903 22.0578C92.4826 22.0578 91.3983 21.72 90.5377 21.0444C89.677 20.3688 89.2485 19.5108 89.2485 18.4625C89.2485 17.4142 89.6546 16.5989 90.4669 15.9311C91.2791 15.2633 92.4527 14.9294 93.9841 14.9294H97.7509L97.7546 14.9333ZM93.7903 19.9922C94.4647 19.9922 95.0869 19.899 95.6532 19.7127C96.2196 19.5263 96.7151 19.1847 97.1287 18.6916C97.5422 18.1985 97.7546 17.5773 97.7546 16.8318H93.9878C93.0489 16.8318 92.3596 16.9949 91.9162 17.3171C91.4729 17.6394 91.253 18.0238 91.253 18.4625C91.253 18.9012 91.4729 19.2662 91.9162 19.5574C92.3596 19.8447 92.9818 19.9922 93.7903 19.9922Z" fill="#00152A"/>
<path d="M101.578 10.4301H103.639V12.0414C104.354 10.8029 105.535 10.1816 107.186 10.1816C108.017 10.1816 108.747 10.3797 109.365 10.7796C109.988 11.1795 110.457 11.7385 110.774 12.4529C111.303 11.6531 111.873 11.0746 112.488 10.7174C113.102 10.3602 113.859 10.1816 114.757 10.1816C115.986 10.1816 117.029 10.6825 117.89 11.6803C118.751 12.6781 119.179 13.9167 119.179 15.3882V21.7905H117.119V15.9434C117.119 13.4779 116.199 12.2472 114.362 12.2472C113.531 12.2472 112.827 12.5966 112.26 13.2993C111.69 14.0021 111.407 14.8834 111.407 15.9434V21.7905H109.347V15.9434C109.347 13.4779 108.426 12.2472 106.59 12.2472C105.759 12.2472 105.055 12.5966 104.488 13.2993C103.918 14.0021 103.635 14.8834 103.635 15.9434V21.7905H101.575V10.4301H101.578Z" fill="#00152A"/>
<path d="M17.8616 18.7344V19.375L0 31.5002V30.25L17.8616 18.7344Z" fill="#0056ED"/>
<path d="M17.8616 18.1172V18.7423L0 28.802V27.5712L17.8616 18.1172Z" fill="#0056ED"/>
<path d="M17.8616 17.502V18.1193L0 26.1057V24.8749L17.8616 17.502Z" fill="#0056ED"/>
<path d="M17.8616 16.912V17.5138L0 23.4231V22.1729L17.6641 16.9508L17.8616 16.8965" fill="#0056ED"/>
<path d="M17.8616 16.8966V16.2793L17.53 16.3337L0 19.4397V20.7287L17.6641 16.951L17.8616 16.9122V16.8966Z" fill="#0056ED"/>
<path d="M17.8616 0.5V1.591L0.0298066 12.7068L0 12.7262V12.0273L17.8616 0.5Z" fill="#0056ED"/>
<path d="M0 13.4025L0.0484361 13.3792L17.8616 4.20085V3.1875L0.0298066 12.7075L0 12.7231V12.7269V13.3986V13.4025Z" fill="#0056ED"/>
<path d="M0 13.3974L0.0484361 13.378L17.8616 5.86133V6.82032L0.186291 13.9836L0 14.0574V14.038V13.4013V13.3974Z" fill="#0056ED"/>
<path d="M17.8616 8.5293V9.44946L0.421019 14.5744L0 14.6987V14.0386L0.186291 13.9843L17.8616 8.5293Z" fill="#0056ED"/>
<path d="M17.8616 11.1875V12.0844L0 15.3147V14.6546L0.421019 14.5731L17.8616 11.1875Z" fill="#0056ED"/>
<path d="M17.8616 16.3638L17.5263 16.3599L0 16.0959V15.168L17.8616 15.4397V16.3444V16.3638Z" fill="#0056ED"/>
</svg>
