<svg width="133" height="32" viewBox="0 0 133 32" fill="none" xmlns="http://www.w3.org/2000/svg">
<path d="M34.7138 16.4329C33.4691 16.266 32.4976 15.9165 31.7953 15.3807C31.0968 14.8449 30.7457 14.1499 30.7457 13.2957C30.7457 12.2357 31.2022 11.3738 32.1152 10.7137C33.0282 10.0537 34.2807 9.72363 35.8727 9.72363C37.0354 9.72363 38.085 10.0808 39.0176 10.7991C39.9501 11.5136 40.5783 12.2862 40.8944 13.1132L39.2322 14.0218C39.0644 13.4976 38.6391 12.9734 37.9563 12.4532C37.2695 11.929 36.5477 11.6689 35.7868 11.6689C34.8582 11.6689 34.1325 11.8203 33.6057 12.1231C33.079 12.426 32.8175 12.7638 32.8175 13.1365C32.8175 13.4821 33.0477 13.7694 33.5043 14.0024C33.9608 14.2353 34.4992 14.4023 35.1235 14.4993L37.2617 14.8294C38.4674 15.008 39.4195 15.3924 40.1257 15.9864C40.8319 16.5805 41.1831 17.2599 41.1831 18.0326C41.1831 19.1896 40.7422 20.106 39.8643 20.7815C38.9864 21.4571 37.8041 21.7949 36.3253 21.7949C34.9557 21.7949 33.7423 21.461 32.681 20.7932C31.6236 20.1254 30.8939 19.2867 30.492 18.285L32.1542 17.1279C32.4156 17.8423 32.9541 18.4713 33.7618 19.0072C34.5734 19.543 35.4396 19.8109 36.3682 19.8109C37.1993 19.8109 37.8587 19.6789 38.3504 19.4187C38.842 19.1586 39.0878 18.7858 39.0878 18.3044C39.0878 17.9472 38.8888 17.621 38.4947 17.3221C38.1006 17.027 37.57 16.829 36.9067 16.7319L34.706 16.4446L34.7138 16.4329Z" fill="white"/>
<path d="M44.8234 17.9204V21.4109H42.6656V5.91895H44.8234V15.2568L49.9309 10.0501H52.67L47.8941 14.8414L53.3528 21.4109H50.7776L46.4817 16.2275L44.8195 17.9204H44.8234Z" fill="white"/>
<path d="M53.4814 10.0508H55.8498L59.2562 20.4215L62.682 10.0508H65.0504L61.25 21.4115L59.9195 25.5427H57.594L58.944 21.4115H57.2818L53.4814 10.0508Z" fill="white"/>
<path d="M68.3257 21.4109H66.1679V5.91895H68.3257V11.5372C69.3792 10.3375 70.7604 9.73952 72.4772 9.73952C74.194 9.73952 75.5363 10.2947 76.6288 11.4013C77.7213 12.5118 78.2676 13.9445 78.2676 15.7072C78.2676 17.47 77.7213 18.9066 76.6288 20.0131C75.5363 21.1236 74.1511 21.6749 72.4772 21.6749C70.8033 21.6749 69.3753 21.077 68.3257 19.8772V21.407V21.4109ZM75.0212 12.9505C74.2526 12.1856 73.3278 11.8051 72.2509 11.8051C71.174 11.8051 70.2493 12.1856 69.4884 12.9505C68.7276 13.7154 68.3452 14.6356 68.3452 15.7072C68.3452 16.8487 68.7237 17.7883 69.4767 18.5183C70.2298 19.2482 71.1545 19.6132 72.247 19.6132C73.3395 19.6132 74.2682 19.2482 75.029 18.5183C75.7899 17.7883 76.1723 16.8526 76.1723 15.7072C76.1723 14.6317 75.7899 13.7154 75.0212 12.9505Z" fill="white"/>
<path d="M89.6856 17.1134L91.4922 18.1268C90.9811 19.214 90.2436 20.0798 89.2799 20.7205C88.3161 21.3611 87.247 21.6795 86.0725 21.6795C84.3128 21.6795 82.8418 21.1087 81.6517 19.9633C80.4617 18.8218 79.8647 17.4008 79.8647 15.7079C79.8647 14.0151 80.4383 12.594 81.5893 11.4525C82.7364 10.311 84.1645 9.73633 85.8657 9.73633C87.5669 9.73633 88.995 10.3071 90.1422 11.4525C91.2893 12.594 91.8668 14.0151 91.8668 15.7079C91.8668 15.8865 91.8551 16.0574 91.8356 16.2127C91.816 16.3719 91.7887 16.4844 91.7614 16.5543L91.7419 16.6592H82.0458C82.2526 17.5561 82.7325 18.2705 83.4778 18.8063C84.2231 19.3421 85.0893 19.6139 86.0725 19.6139C86.8607 19.6139 87.5786 19.3887 88.2224 18.9422C88.8663 18.4957 89.354 17.8861 89.6856 17.1134ZM82.0263 14.8615H89.6856C89.4905 13.9801 89.0379 13.2502 88.3278 12.6716C87.6138 12.0931 86.7944 11.8058 85.8657 11.8058C84.9371 11.8058 84.1138 12.0931 83.3959 12.6716C82.6779 13.2502 82.2175 13.9801 82.0263 14.8615Z" fill="white"/>
<path d="M102.373 14.5545C102.373 13.8246 102.084 13.1762 101.503 12.6132C100.921 12.0502 100.09 11.7667 99.0132 11.7667C98.2094 11.7667 97.5032 12.0075 96.8945 12.4889C96.2858 12.9704 95.8059 13.611 95.4625 14.4109L93.656 13.3975C94.1944 12.2831 94.9241 11.3862 95.8449 10.7106C96.7658 10.0351 97.8192 9.69727 99.0093 9.69727C100.753 9.69727 102.111 10.136 103.079 11.0096C104.047 11.8832 104.53 13.0713 104.53 14.5739V21.3919H102.373V19.6758C102.041 20.2698 101.483 20.7513 100.703 21.1202C99.9223 21.4929 99.0952 21.6793 98.2211 21.6793C96.8516 21.6793 95.7161 21.3415 94.8148 20.6659C93.9135 19.9903 93.4648 19.1322 93.4648 18.0839C93.4648 17.0356 93.8901 16.2202 94.7407 15.5524C95.5913 14.8845 96.8204 14.5506 98.424 14.5506H102.369L102.373 14.5545ZM98.2211 19.6137C98.9274 19.6137 99.579 19.5205 100.172 19.3341C100.765 19.1477 101.284 18.8061 101.717 18.313C102.15 17.8199 102.373 17.1986 102.373 16.4532H98.4279C97.4447 16.4532 96.7228 16.6162 96.2585 16.9385C95.7942 17.2608 95.564 17.6451 95.564 18.0839C95.564 18.5226 95.7942 18.8876 96.2585 19.1788C96.7228 19.4661 97.3744 19.6137 98.2211 19.6137Z" fill="white"/>
<path d="M106.377 10.0502H108.535V11.6616C109.284 10.423 110.521 9.80176 112.25 9.80176C113.12 9.80176 113.884 9.99978 114.532 10.3997C115.184 10.7996 115.675 11.3587 116.007 12.0731C116.561 11.2733 117.158 10.6948 117.802 10.3376C118.446 9.98036 119.238 9.80176 120.178 9.80176C121.466 9.80176 122.558 10.3026 123.46 11.3005C124.361 12.2983 124.81 13.5369 124.81 15.0085V21.411H122.652V15.5637C122.652 13.0982 121.688 11.8674 119.765 11.8674C118.894 11.8674 118.157 12.2168 117.564 12.9196C116.967 13.6223 116.67 14.5037 116.67 15.5637V21.411H114.513V15.5637C114.513 13.0982 113.549 11.8674 111.625 11.8674C110.755 11.8674 110.018 12.2168 109.425 12.9196C108.828 13.6223 108.531 14.5037 108.531 15.5637V21.411H106.373V10.0502H106.377Z" fill="white"/>
<path d="M126.109 3.06199H125.055V2.17673H128.017V3.06199H127.014V6.00895H126.109V3.06199ZM131.384 6.00895H130.022L129.18 2.62713V6.00895H128.29V2.17285H130.022L130.701 5.57409L131.283 2.17285H132.999V6.00895H132.11V2.62713L131.38 6.00895H131.384Z" fill="white"/>
<path d="M18.7055 18.3535V18.9942L0 31.1198V29.8696L18.7055 18.3535Z" fill="white"/>
<path d="M18.7055 17.7363V18.3614L0 28.4215V27.1907L18.7055 17.7363Z" fill="white"/>
<path d="M18.7055 17.123V17.7404L0 25.7271V24.4963L18.7055 17.123Z" fill="white"/>
<path d="M18.7055 16.5331V17.1349L0 23.0444V21.7942L18.4987 16.5719L18.7055 16.5176" fill="white"/>
<path d="M18.7055 16.5168V15.8994L18.3582 15.9538L0 19.0599V20.349L18.4987 16.5711L18.7055 16.5323V16.5168Z" fill="white"/>
<path d="M18.7055 0.119141V1.21018L0.0312148 12.3263L0 12.3457V11.6469L18.7055 0.119141Z" fill="white"/>
<path d="M0 13.021L0.0507245 12.9977L18.7055 3.81905V2.80566L0.0312148 12.326L0 12.3416V12.3454V13.0171V13.021Z" fill="white"/>
<path d="M0 13.0178L0.0507245 12.9983L18.7055 5.48145V6.44047L0.195092 13.604L0 13.6778V13.6584V13.0216V13.0178Z" fill="white"/>
<path d="M18.7055 8.14844V9.06864L0.440909 14.1938L0 14.318V13.658L0.195092 13.6036L18.7055 8.14844Z" fill="white"/>
<path d="M18.7055 10.8076V11.7045L0 14.9349V14.2749L0.440909 14.1933L18.7055 10.8076Z" fill="white"/>
<path d="M18.7055 15.983L18.3543 15.9791L0 15.7151V14.7871L18.7055 15.0589V15.9636V15.983Z" fill="white"/>
</svg>
