<svg width="127" height="32" viewBox="0 0 127 32" fill="none" xmlns="http://www.w3.org/2000/svg">
<path d="M33.1478 16.8126C31.9593 16.6456 31.0315 16.2962 30.3609 15.7604C29.694 15.2246 29.3586 14.5296 29.3586 13.6755C29.3586 12.6155 29.7946 11.7536 30.6664 11.0936C31.5382 10.4335 32.7342 10.1035 34.2544 10.1035C35.3647 10.1035 36.3669 10.4607 37.2574 11.179C38.1479 11.8934 38.7477 12.666 39.0495 13.493L37.4623 14.4015C37.3021 13.8774 36.896 13.3532 36.244 12.833C35.5882 12.3088 34.8989 12.0487 34.1724 12.0487C33.2857 12.0487 32.5926 12.2001 32.0897 12.5029C31.5867 12.8058 31.337 13.1436 31.337 13.5163C31.337 13.8618 31.5569 14.1491 31.9928 14.3821C32.4287 14.6151 32.9429 14.782 33.539 14.8791L35.5808 15.2091C36.732 15.3877 37.6411 15.7721 38.3155 16.3661C38.9899 16.9601 39.3252 17.6396 39.3252 18.4122C39.3252 19.5692 38.9042 20.4855 38.0659 21.161C37.2276 21.8366 36.0987 22.1744 34.6866 22.1744C33.3788 22.1744 32.2201 21.8405 31.2066 21.1727C30.1969 20.5049 29.5002 19.6663 29.1165 18.6646L30.7037 17.5076C30.9533 18.2219 31.4674 18.8509 32.2387 19.3867C33.0137 19.9225 33.8408 20.1904 34.7275 20.1904C35.5211 20.1904 36.1508 20.0584 36.6203 19.7983C37.0897 19.5381 37.3244 19.1654 37.3244 18.684C37.3244 18.3268 37.1344 18.0006 36.7581 17.7017C36.3818 17.4066 35.8751 17.2086 35.2417 17.1115L33.1403 16.8242L33.1478 16.8126Z" fill="white"/>
<path d="M42.8013 18.2998V21.7902H40.741V6.29883H42.8013V15.6364L47.6785 10.4299H50.294L45.7336 15.221L50.946 21.7902H48.487L44.3848 16.607L42.7976 18.2998H42.8013Z" fill="white"/>
<path d="M51.0688 10.4297H53.3304L56.5831 20.8L59.8543 10.4297H62.1159L58.487 21.7901L57.2165 25.9211H54.9959L56.285 21.7901H54.6978L51.0688 10.4297Z" fill="white"/>
<path d="M65.2432 21.7902H63.1829V6.29883H65.2432V11.9169C66.2492 10.7172 67.5682 10.1193 69.2075 10.1193C70.8469 10.1193 72.1286 10.6745 73.1718 11.781C74.215 12.8914 74.7367 14.3241 74.7367 16.0868C74.7367 17.8494 74.215 19.286 73.1718 20.3925C72.1286 21.5029 70.8059 22.0543 69.2075 22.0543C67.6091 22.0543 66.2455 21.4563 65.2432 20.2566V21.7864V21.7902ZM71.6368 13.3301C70.9028 12.5653 70.0198 12.1848 68.9914 12.1848C67.9631 12.1848 67.0801 12.5653 66.3535 13.3301C65.627 14.095 65.2619 15.0152 65.2619 16.0868C65.2619 17.2282 65.6233 18.1678 66.3424 18.8977C67.0615 19.6277 67.9445 19.9926 68.9877 19.9926C70.0309 19.9926 70.9177 19.6277 71.6442 18.8977C72.3708 18.1678 72.7359 17.2321 72.7359 16.0868C72.7359 15.0113 72.3708 14.095 71.6368 13.3301Z" fill="white"/>
<path d="M85.6396 17.4921L87.3647 18.5054C86.8766 19.5926 86.1724 20.4584 85.2521 21.099C84.3319 21.7396 83.311 22.058 82.1895 22.058C80.5092 22.058 79.1045 21.4873 77.9681 20.3419C76.8318 19.2004 76.2617 17.7794 76.2617 16.0866C76.2617 14.3938 76.8094 12.9728 77.9085 11.8313C79.0039 10.6899 80.3676 10.1152 81.992 10.1152C83.6165 10.1152 84.9802 10.686 86.0755 11.8313C87.1709 12.9728 87.7224 14.3938 87.7224 16.0866C87.7224 16.2652 87.7112 16.436 87.6926 16.5913C87.6739 16.7505 87.6478 16.8631 87.6218 16.933L87.6031 17.0378H78.3445C78.5419 17.9347 79.0002 18.6491 79.7118 19.1849C80.4235 19.7207 81.2506 19.9925 82.1895 19.9925C82.9421 19.9925 83.6277 19.7673 84.2424 19.3208C84.8572 18.8743 85.3229 18.2647 85.6396 17.4921ZM78.3258 15.2402H85.6396C85.4533 14.3589 85.0211 13.629 84.343 13.0504C83.6612 12.4719 82.8788 12.1846 81.992 12.1846C81.1053 12.1846 80.3191 12.4719 79.6336 13.0504C78.948 13.629 78.5084 14.3589 78.3258 15.2402Z" fill="white"/>
<path d="M97.7543 14.9333C97.7543 14.2033 97.4786 13.5549 96.9235 12.992C96.3683 12.429 95.5747 12.1456 94.5464 12.1456C93.7789 12.1456 93.1045 12.3863 92.5233 12.8677C91.9421 13.3492 91.4838 13.9898 91.1559 14.7896L89.4309 13.7763C89.945 12.662 90.6418 11.7651 91.521 11.0895C92.4003 10.414 93.4063 10.0762 94.5427 10.0762C96.2081 10.0762 97.5047 10.5149 98.4287 11.3885C99.3527 12.2621 99.8147 13.4501 99.8147 14.9527V21.7704H97.7543V20.0544C97.4377 20.6484 96.9049 21.1298 96.1597 21.4987C95.4145 21.8714 94.6247 22.0578 93.7901 22.0578C92.4823 22.0578 91.3981 21.72 90.5374 21.0444C89.6768 20.3688 89.2483 19.5108 89.2483 18.4625C89.2483 17.4142 89.6544 16.5989 90.4666 15.9311C91.2789 15.2633 92.4525 14.9294 93.9838 14.9294H97.7506L97.7543 14.9333ZM93.7901 19.9922C94.4644 19.9922 95.0867 19.899 95.653 19.7127C96.2193 19.5263 96.7148 19.1847 97.1284 18.6916C97.542 18.1985 97.7543 17.5773 97.7543 16.8318H93.9875C93.0486 16.8318 92.3594 16.9949 91.916 17.3171C91.4726 17.6394 91.2528 18.0238 91.2528 18.4625C91.2528 18.9012 91.4726 19.2662 91.916 19.5574C92.3594 19.8447 92.9816 19.9922 93.7901 19.9922Z" fill="white"/>
<path d="M101.578 10.4301H103.639V12.0414C104.354 10.8029 105.535 10.1816 107.186 10.1816C108.016 10.1816 108.747 10.3797 109.365 10.7796C109.987 11.1795 110.457 11.7385 110.774 12.4529C111.303 11.6531 111.873 11.0746 112.487 10.7174C113.102 10.3602 113.859 10.1816 114.756 10.1816C115.986 10.1816 117.029 10.6825 117.89 11.6803C118.751 12.6781 119.179 13.9167 119.179 15.3882V21.7905H117.119V15.9434C117.119 13.4779 116.198 12.2472 114.362 12.2472C113.531 12.2472 112.826 12.5966 112.26 13.2993C111.69 14.0021 111.407 14.8834 111.407 15.9434V21.7905H109.347V15.9434C109.347 13.4779 108.426 12.2472 106.589 12.2472C105.759 12.2472 105.054 12.5966 104.488 13.2993C103.918 14.0021 103.635 14.8834 103.635 15.9434V21.7905H101.574V10.4301H101.578Z" fill="white"/>
<path d="M17.8616 18.7344V19.375L0 31.5002V30.25L17.8616 18.7344Z" fill="white"/>
<path d="M17.8616 18.1172V18.7423L0 28.802V27.5712L17.8616 18.1172Z" fill="white"/>
<path d="M17.8616 17.502V18.1193L0 26.1057V24.8749L17.8616 17.502Z" fill="white"/>
<path d="M17.8616 16.912V17.5138L0 23.4231V22.1729L17.6641 16.9508L17.8616 16.8965" fill="white"/>
<path d="M17.8616 16.8966V16.2793L17.53 16.3337L0 19.4397V20.7287L17.6641 16.951L17.8616 16.9122V16.8966Z" fill="white"/>
<path d="M17.8616 0.5V1.591L0.0298066 12.7068L0 12.7262V12.0273L17.8616 0.5Z" fill="white"/>
<path d="M0 13.4025L0.0484361 13.3792L17.8616 4.20085V3.1875L0.0298066 12.7075L0 12.7231V12.7269V13.3986V13.4025Z" fill="white"/>
<path d="M0 13.3974L0.0484361 13.378L17.8616 5.86133V6.82032L0.186291 13.9836L0 14.0574V14.038V13.4013V13.3974Z" fill="white"/>
<path d="M17.8616 8.5293V9.44946L0.421019 14.5744L0 14.6987V14.0386L0.186291 13.9843L17.8616 8.5293Z" fill="white"/>
<path d="M17.8616 11.1875V12.0844L0 15.3147V14.6546L0.421019 14.5731L17.8616 11.1875Z" fill="white"/>
<path d="M17.8616 16.3638L17.5263 16.3599L0 16.0959V15.168L17.8616 15.4397V16.3444V16.3638Z" fill="white"/>
</svg>
