<svg width="138" height="75" viewBox="0 0 138 75" fill="none" xmlns="http://www.w3.org/2000/svg">
<g id="Sling_TV_logo 1" clip-path="url(#clip0_49_10991)">
<path id="Vector" d="M34.5578 12.8863V59.7997C34.5578 60.1213 34.8119 60.3759 35.1329 60.3759H43.0366C43.3575 60.3759 43.6116 60.1213 43.6116 59.7997V12.8863C43.6116 12.5647 43.3575 12.3101 43.0366 12.3101H35.1329C34.8119 12.3101 34.5578 12.5647 34.5578 12.8863ZM9.83027 35.3447C9.83027 33.8171 11.97 32.7183 15.2465 32.7183C18.9777 32.7183 22.4949 34.0449 24.6748 35.9209C25.076 36.2693 25.7046 36.1621 25.972 35.6931L28.6334 30.3733C28.834 30.0115 28.7404 29.5559 28.4194 29.3147C25.1295 26.8357 20.6895 25.0535 15.1797 25.0535C6.1392 25.0535 1.07066 30.1187 1.07066 35.9075C1.07066 49.4013 21.5187 44.7381 21.5187 50.6743C21.5187 52.2957 19.6731 53.6759 15.7547 53.6759C11.863 53.6759 7.26257 52.1349 4.58788 50.0043C4.18667 49.6827 3.59824 49.7899 3.33077 50.2321L0.294996 55.2839C0.0810203 55.6323 0.147888 56.0745 0.455477 56.3425C4.10643 59.4111 9.6163 61.2335 15.3134 61.2335C24.862 61.2335 30.1981 56.5167 30.1981 50.1785C30.2114 36.5641 9.83027 40.7717 9.83027 35.3447ZM49.8838 25.6163V59.7729C49.8838 60.0945 50.1379 60.3491 50.4589 60.3491H58.3626C58.6835 60.3491 58.9376 60.0945 58.9376 59.7729V25.6163C58.9376 25.2947 58.6835 25.0401 58.3626 25.0401H50.4589C50.1513 25.0535 49.8838 25.3081 49.8838 25.6163ZM88.3994 59.7729C88.3994 60.0945 88.6535 60.3491 88.9744 60.3491H96.8781C97.1991 60.3491 97.4532 60.0945 97.4532 59.7729V37.4217C97.4532 30.7083 92.5585 24.9865 85.0025 24.9865C79.3723 24.9865 75.5742 27.8273 74.2101 30.3465V25.6163C74.2101 25.2947 73.956 25.0401 73.6351 25.0401H65.7314C65.4104 25.0401 65.1563 25.2947 65.1563 25.6163V59.7729C65.1563 60.0945 65.4104 60.3491 65.7314 60.3491H73.6351C73.956 60.3491 74.2101 60.0945 74.2101 59.7729V41.0263C74.2101 36.8455 77.2727 33.0801 81.6057 33.0801C85.2967 33.0801 88.386 34.9963 88.386 39.7801V59.7729H88.3994ZM103.859 69.3941C103.712 69.6353 103.752 69.9435 103.966 70.1311C108.139 73.6687 112.672 74.9551 118.423 74.9551C126.902 74.9551 137.025 71.1361 137.025 57.9907V26.4203C137.025 26.0987 136.771 25.8441 136.45 25.8441H128.466C128.145 25.8441 127.891 26.0987 127.891 26.4203V30.2795C125.658 26.6347 121.806 24.9999 117.674 24.9999C108.981 24.9999 102.08 32.3833 102.08 43.6661C102.08 53.0461 108.647 61.2335 117.674 61.2335C121.94 61.2335 125.176 59.2369 127.891 55.8065V58.2185C127.891 64.9989 122.756 67.5449 118.409 67.5449C114.317 67.5449 110.853 66.4729 108.139 63.7795C107.885 63.5249 107.443 63.5785 107.256 63.8867L103.859 69.3941ZM120.135 52.0679C114.999 52.0679 111.442 48.5973 111.442 42.6745C111.442 36.7517 115.013 33.0667 120.135 33.0667C124.829 33.0667 127.905 37.5155 127.905 42.6745C127.905 47.8335 124.842 52.0679 120.135 52.0679ZM133.2 74.9551H133.669V73.1729H134.297V72.7575H132.559V73.1729H133.2V74.9551ZM136.29 74.0841L136.557 73.3873V74.9551H137.025V72.7709H136.37L135.835 74.1377L135.3 72.7709H134.645V74.9551H135.113V73.3873L135.728 74.9551H135.929L136.29 74.0841Z" fill="white"/>
<g id="Group">
<path id="Vector_2" d="M49.0297 11.4123C49.0564 8.3705 51.5439 5.9451 54.5797 5.9719C57.6154 5.9987 60.036 8.4911 60.0093 11.5329C59.9825 14.4943 57.4951 17.0001 54.4593 16.9733C51.4235 16.9465 49.0029 14.3871 49.0297 11.4123Z" fill="white"/>
<path id="Vector_3" d="M66.0549 17.3348C68.7965 16.6916 70.856 14.3198 70.8961 11.4522V11.412C70.9095 8.54439 68.9034 6.11898 66.1753 5.42218C65.9078 5.35518 65.5868 5.51598 65.7607 5.85098C66.884 7.83418 67.1515 9.93799 67.1381 11.3986C67.1248 12.8458 66.8038 14.9496 65.6403 16.906C65.4665 17.2276 65.7741 17.4018 66.0549 17.3348Z" fill="white"/>
<path id="Vector_4" d="M76.3795 19.6668C80.2176 18.7824 83.0796 15.4592 83.1464 11.4526V11.399C83.1598 7.39243 80.3647 4.01562 76.5533 3.03742C76.1655 2.94362 75.7242 3.17142 75.9782 3.62702C77.5429 6.38742 77.9308 9.33543 77.904 11.3588C77.8773 13.3822 77.4226 16.3302 75.8044 19.0504C75.5637 19.5194 75.9916 19.7606 76.3795 19.6668Z" fill="white"/>
<path id="Vector_5" d="M87.4106 1.56322C89.3899 5.06062 89.8847 8.79923 89.8579 11.3586C89.8312 13.9314 89.2561 17.6432 87.1966 21.1004C86.8757 21.6632 87.424 22.1322 87.9054 22.025C92.76 20.8994 96.3976 16.531 96.4778 11.4658V11.3988C96.5045 6.33362 92.9606 2.04562 88.1328 0.812818C87.6647 0.692217 87.103 0.987018 87.4106 1.56322Z" fill="white"/>
</g>
</g>
<defs>
<clipPath id="clip0_49_10991">
<rect width="136.864" height="74.1691" fill="white" transform="translate(0.176147 0.786133)"/>
</clipPath>
</defs>
</svg>
