<svg width="371" height="368" viewBox="0 0 371 368" fill="none" xmlns="http://www.w3.org/2000/svg">
<path d="M9.89641 170.194C19.8464 187.477 53.1166 208.284 78.717 223.105L302.565 358.777C328.529 375.594 366.333 366.214 383.072 341.365C383.693 340.43 384.12 339.38 384.327 338.277C384.533 337.174 384.514 336.04 384.273 334.945C384.031 333.849 383.57 332.813 382.919 331.899C382.267 330.986 381.438 330.213 380.481 329.627L63.6106 137.649L9.89641 170.194Z" fill="url(#paint0_radial_418_7266)"/>
<path d="M0.259738 137.622C0.240969 149.189 3.60022 160.509 9.9248 170.193C132.563 95.8272 258.078 19.6996 380.457 -54.4328C381.415 -55.0186 382.244 -55.7916 382.895 -56.7053C383.547 -57.619 384.007 -58.6548 384.249 -59.7507C384.491 -60.8465 384.509 -61.9799 384.303 -63.083C384.097 -64.1861 383.67 -65.2363 383.049 -66.1707C366.336 -90.9419 328.479 -100.322 302.516 -83.5054C305.625 -85.3969 236.571 -43.576 73.1744 55.5091C37.5462 77.2228 0.285651 94.6353 0.259738 137.622Z" fill="url(#paint1_radial_418_7266)"/>
<path d="M302.569 77.6916C269.454 77.6916 242.61 104.536 242.61 137.65C242.61 170.765 269.454 197.609 302.569 197.609C335.683 197.609 362.527 170.765 362.527 137.65C362.527 104.536 335.683 77.6916 302.569 77.6916Z" fill="#7573FC"/>
<defs>
<radialGradient id="paint0_radial_418_7266" cx="0" cy="0" r="1" gradientUnits="userSpaceOnUse" gradientTransform="translate(364.519 351.988) rotate(-180) scale(380.223 380.223)">
<stop stop-color="#B3253D"/>
<stop offset="0.5" stop-color="#413FB0"/>
<stop offset="1" stop-color="#1B428C"/>
</radialGradient>
<radialGradient id="paint1_radial_418_7266" cx="0" cy="0" r="1" gradientUnits="userSpaceOnUse" gradientTransform="translate(411.136 57.7635) rotate(-180) scale(412.95 412.95)">
<stop stop-color="#FF4F6C"/>
<stop offset="0.5" stop-color="#7573FC"/>
<stop offset="1" stop-color="#14BDEB"/>
</radialGradient>
</defs>
</svg>
