<svg width="178" height="211" viewBox="0 0 178 211" fill="none" xmlns="http://www.w3.org/2000/svg">
<g id="Group 33995">
<path id="Vector" d="M172.665 120.221C168.103 128.146 152.847 137.686 141.109 144.482L38.4699 206.691C26.5653 214.401 9.2311 210.101 1.55604 198.707C1.27102 198.278 1.0753 197.797 0.9807 197.291C0.886104 196.785 0.894579 196.266 1.0055 195.763C1.11642 195.261 1.32756 194.786 1.6263 194.367C1.92504 193.948 2.30523 193.593 2.74413 193.325L148.036 105.299L172.665 120.221Z" fill="url(#paint0_radial_418_6786)"/>
<path id="Vector_2" d="M177.084 105.287C177.093 110.59 175.553 115.781 172.653 120.221C116.42 86.1227 58.8693 51.2166 2.7558 17.2254C2.31691 16.9568 1.93671 16.6024 1.63797 16.1834C1.33923 15.7644 1.12809 15.2895 1.01717 14.787C0.90625 14.2845 0.897846 13.7649 0.992443 13.2591C1.08704 12.7533 1.28269 12.2717 1.56771 11.8433C9.23089 0.485175 26.5889 -3.81571 38.4936 3.89499C37.0679 3.02768 68.7305 22.2035 143.651 67.636C159.988 77.5922 177.073 85.5762 177.084 105.287Z" fill="url(#paint1_radial_418_6786)"/>
<path id="Vector_3" d="M38.4694 77.8072C53.6531 77.8072 65.9618 90.1159 65.9618 105.3C65.9618 120.483 53.6531 132.792 38.4694 132.792C23.2858 132.792 10.977 120.483 10.977 105.3C10.977 90.1159 23.2858 77.8072 38.4694 77.8072Z" fill="#7573FC"/>
</g>
<defs>
<radialGradient id="paint0_radial_418_6786" cx="0" cy="0" r="1" gradientUnits="userSpaceOnUse" gradientTransform="translate(10.0627 203.578) scale(174.34 174.34)">
<stop stop-color="#B3253D"/>
<stop offset="0.5" stop-color="#413FB0"/>
<stop offset="1" stop-color="#1B428C"/>
</radialGradient>
<radialGradient id="paint1_radial_418_6786" cx="0" cy="0" r="1" gradientUnits="userSpaceOnUse" gradientTransform="translate(-11.3112 68.6697) scale(189.346 189.346)">
<stop stop-color="#FF4F6C"/>
<stop offset="0.5" stop-color="#7573FC"/>
<stop offset="1" stop-color="#14BDEB"/>
</radialGradient>
</defs>
</svg>
