<svg width="434" height="424" viewBox="0 0 434 424" fill="none" xmlns="http://www.w3.org/2000/svg">
<path d="M11.9403 178.868C24.2674 200.28 65.486 226.057 97.2025 244.42L374.529 412.504C406.695 433.338 453.532 421.717 474.269 390.932C475.039 389.774 475.568 388.473 475.824 387.107C476.08 385.74 476.057 384.336 475.757 382.978C475.457 381.62 474.887 380.337 474.08 379.205C473.272 378.073 472.245 377.116 471.059 376.39L78.4871 138.548L11.9403 178.868Z" fill="url(#paint0_radial_418_7743)"/>
<path d="M-0.000881482 138.514C-0.0241371 152.844 4.13767 166.868 11.9732 178.866C163.911 86.7341 319.412 -7.58081 471.028 -99.4239C472.214 -100.15 473.241 -101.107 474.048 -102.239C474.856 -103.371 475.426 -104.655 475.726 -106.012C476.025 -107.37 476.048 -108.774 475.793 -110.141C475.537 -111.507 475.008 -112.808 474.238 -113.966C453.533 -144.655 406.632 -156.276 374.466 -135.442C378.318 -137.785 292.767 -85.9733 90.3334 36.7838C46.1936 63.685 0.0312277 85.2574 -0.000881482 138.514Z" fill="url(#paint1_radial_418_7743)"/>
<path d="M374.529 64.2662C333.504 64.2662 300.246 97.524 300.246 138.55C300.246 179.575 333.504 212.833 374.529 212.833C415.555 212.833 448.813 179.575 448.813 138.55C448.813 97.524 415.555 64.2662 374.529 64.2662Z" fill="#7573FC"/>
<defs>
<radialGradient id="paint0_radial_418_7743" cx="0" cy="0" r="1" gradientUnits="userSpaceOnUse" gradientTransform="translate(451.285 404.094) rotate(-180) scale(471.061 471.061)">
<stop stop-color="#B3253D"/>
<stop offset="0.5" stop-color="#413FB0"/>
<stop offset="1" stop-color="#1B428C"/>
</radialGradient>
<radialGradient id="paint1_radial_418_7743" cx="0" cy="0" r="1" gradientUnits="userSpaceOnUse" gradientTransform="translate(509.037 39.5767) rotate(-180) scale(511.606 511.605)">
<stop stop-color="#FF4F6C"/>
<stop offset="0.5" stop-color="#7573FC"/>
<stop offset="1" stop-color="#14BDEB"/>
</radialGradient>
</defs>
</svg>
