<svg xmlns="http://www.w3.org/2000/svg" width="163" height="16" viewBox="0 0 163 16" fill="none">
  <path d="M158.292 12.2158C155.646 12.2158 153.99 10.1638 153.99 7.64384C153.99 5.12384 155.646 3.08984 158.292 3.08984C160.938 3.08984 162.594 5.12384 162.594 7.64384C162.594 10.1638 160.938 12.2158 158.292 12.2158ZM158.292 11.0098C160.146 11.0098 161.172 9.42584 161.172 7.64384C161.172 5.87984 160.146 4.29584 158.292 4.29584C156.438 4.29584 155.394 5.87984 155.394 7.64384C155.394 9.42584 156.438 11.0098 158.292 11.0098Z" fill="#0067FF"/>
  <path d="M151.117 1.84827C150.631 1.84827 150.217 1.43427 150.217 0.930274C150.217 0.426274 150.631 0.0302734 151.117 0.0302734C151.621 0.0302734 152.035 0.426274 152.035 0.930274C152.035 1.43427 151.621 1.84827 151.117 1.84827ZM150.451 12.0003V3.30627H151.801V12.0003H150.451Z" fill="#0067FF"/>
  <path d="M146.033 11.1902C146.033 10.6502 146.483 10.2002 147.023 10.2002C147.563 10.2002 148.013 10.6502 148.013 11.1902C148.013 11.7302 147.563 12.1802 147.023 12.1802C146.483 12.1802 146.033 11.7302 146.033 11.1902Z" fill="#0067FF"/>
  <path d="M142.26 11.9998V6.09584C142.26 4.99784 141.774 4.29584 140.658 4.29584C139.758 4.29584 138.804 4.94384 138.354 5.62784V11.9998H137.004V6.09584C137.004 4.99784 136.536 4.29584 135.402 4.29584C134.52 4.29584 133.584 4.94384 133.116 5.64584V11.9998H131.766V3.30584H133.116V4.56584C133.476 4.00784 134.646 3.08984 135.924 3.08984C137.256 3.08984 138.012 3.80984 138.264 4.70984C138.75 3.91784 139.92 3.08984 141.18 3.08984C142.764 3.08984 143.61 3.97184 143.61 5.71784V11.9998H142.26Z" fill="#0067FF"/>
  <path d="M127.709 11.9998V11.0098C126.989 11.8018 125.999 12.2158 124.829 12.2158C123.353 12.2158 121.787 11.2258 121.787 9.33584C121.787 7.39184 123.353 6.47384 124.829 6.47384C126.017 6.47384 127.007 6.85184 127.709 7.66184V6.09584C127.709 4.92584 126.773 4.25984 125.513 4.25984C124.469 4.25984 123.623 4.63784 122.849 5.46584L122.219 4.52984C123.155 3.55784 124.271 3.08984 125.693 3.08984C127.529 3.08984 129.059 3.91784 129.059 6.02384V11.9998H127.709ZM127.709 10.1638V8.52584C127.187 7.80584 126.269 7.44584 125.315 7.44584C124.055 7.44584 123.173 8.23784 123.173 9.35384C123.173 10.4518 124.055 11.2438 125.315 11.2438C126.269 11.2438 127.187 10.8838 127.709 10.1638Z" fill="#0067FF"/>
  <path d="M111.627 7.64384C111.627 5.12384 113.427 3.08984 115.911 3.08984C118.539 3.08984 120.087 5.14184 120.087 7.75184V8.09384H113.049C113.157 9.73184 114.309 11.0998 116.181 11.0998C117.171 11.0998 118.179 10.7038 118.863 10.0018L119.511 10.8838C118.647 11.7478 117.477 12.2158 116.055 12.2158C113.481 12.2158 111.627 10.3618 111.627 7.64384ZM115.893 4.20584C114.039 4.20584 113.121 5.77184 113.049 7.10384H118.755C118.737 5.80784 117.873 4.20584 115.893 4.20584Z" fill="#0067FF"/>
  <path d="M101.777 12.0001V-0.00585938H103.127V4.62014C103.829 3.66614 104.873 3.09014 106.061 3.09014C108.329 3.09014 109.931 4.89014 109.931 7.66214C109.931 10.4881 108.329 12.2161 106.061 12.2161C104.837 12.2161 103.775 11.5861 103.127 10.7041V12.0001H101.777ZM103.127 9.64214C103.595 10.3981 104.657 11.0101 105.719 11.0101C107.483 11.0101 108.527 9.58814 108.527 7.66214C108.527 5.73614 107.483 4.29614 105.719 4.29614C104.657 4.29614 103.595 4.94414 103.127 5.70014V9.64214Z" fill="#0067FF"/>
  <path d="M92.6842 14.1777C92.8822 14.2677 93.2062 14.3217 93.4222 14.3217C94.0162 14.3217 94.4122 14.1237 94.7182 13.4037L95.2942 12.0897L91.6582 3.30566H93.1162L96.0142 10.4337L98.8942 3.30566H100.37L96.0142 13.7637C95.4922 15.0237 94.6102 15.5097 93.4582 15.5277C93.1702 15.5277 92.7202 15.4737 92.4682 15.4017L92.6842 14.1777Z" fill="#0067FF"/>
  <path d="M89.629 12.0001L86.497 8.09414L85.057 9.51614V12.0001H83.707V-0.00585938H85.057V7.93214L89.629 3.30614H91.339L87.487 7.24814L91.357 12.0001H89.629Z" fill="#0067FF"/>
  <path d="M74.584 10.8478L75.286 9.87584C75.862 10.5418 76.96 11.1178 78.148 11.1178C79.48 11.1178 80.2 10.5238 80.2 9.67784C80.2 8.72384 79.138 8.41784 77.968 8.12984C76.492 7.78784 74.818 7.39184 74.818 5.59184C74.818 4.24184 75.988 3.08984 78.058 3.08984C79.534 3.08984 80.578 3.64784 81.28 4.34984L80.65 5.28584C80.128 4.65584 79.174 4.18784 78.058 4.18784C76.87 4.18784 76.132 4.72784 76.132 5.50184C76.132 6.34784 77.122 6.61784 78.256 6.88784C79.768 7.22984 81.514 7.66184 81.514 9.58784C81.514 11.0458 80.344 12.2158 78.094 12.2158C76.672 12.2158 75.466 11.7838 74.584 10.8478Z" fill="#0067FF"/>
  <path d="M60.5234 7.60763C60.5234 3.71963 63.9254 0.515625 67.6694 0.515625C71.0714 0.515625 73.3394 3.07163 73.3394 6.22163C73.3394 9.04763 71.7374 10.4696 70.2254 10.4696C69.2174 10.4696 68.6414 9.76762 68.5874 9.01162L68.5694 8.90363C67.9394 9.78563 66.8774 10.4696 65.7254 10.4696C64.0514 10.4696 62.9714 9.28163 62.9714 7.53563C62.9714 5.03363 65.0774 3.01762 67.2014 3.01762C68.3714 3.01762 69.1634 3.64762 69.5054 4.42162L69.7394 3.30562H70.9634L69.9374 8.18363C69.9194 8.29163 69.9014 8.45362 69.9014 8.56162C69.9014 9.17362 70.2794 9.49762 70.7474 9.49762C71.4494 9.49762 72.6914 8.70563 72.6914 6.22163C72.6914 3.26963 70.6574 1.12762 67.5974 1.12762C64.1234 1.12762 61.1354 4.20562 61.1354 7.57162C61.1354 10.4696 63.3134 12.6656 66.3014 12.6656C67.5794 12.6656 68.6774 12.2696 69.6494 11.6576L69.9734 12.1256C68.8574 12.8456 67.5614 13.2596 66.2294 13.2596C62.9534 13.2596 60.5234 10.7936 60.5234 7.60763ZM68.7674 7.84163L69.2894 5.35763C69.0914 4.79963 68.4974 4.02563 67.4354 4.02563C65.6354 4.02563 64.2494 5.73562 64.2494 7.46362C64.2494 8.61563 64.9334 9.46163 66.0854 9.46163C67.3274 9.46163 68.2454 8.59762 68.7674 7.84163Z" fill="#0067FF"/>
  <path d="M58.1473 12.2157C56.8693 12.2157 56.2212 11.4777 56.2212 10.1817V4.49369H54.7812V3.30569H56.2212V0.929688H57.5713V3.30569H59.3353V4.49369H57.5713V9.89369C57.5713 10.5417 57.8592 11.0097 58.4533 11.0097C58.8312 11.0097 59.1912 10.8477 59.3713 10.6497L59.7673 11.6577C59.4253 11.9817 58.9393 12.2157 58.1473 12.2157Z" fill="#0067FF"/>
  <path d="M50.0098 12V3.30598H51.3598V4.70998C52.0618 3.79198 53.0698 3.12598 54.2578 3.12598V4.51198C54.0958 4.47598 53.9338 4.45798 53.7178 4.45798C52.8898 4.45798 51.7558 5.14198 51.3598 5.84398V12H50.0098Z" fill="#0067FF"/>
  <path d="M43.5071 12.2158C40.8611 12.2158 39.2051 10.1638 39.2051 7.64384C39.2051 5.12384 40.8611 3.08984 43.5071 3.08984C46.1531 3.08984 47.8091 5.12384 47.8091 7.64384C47.8091 10.1638 46.1531 12.2158 43.5071 12.2158ZM43.5071 11.0098C45.3611 11.0098 46.3871 9.42584 46.3871 7.64384C46.3871 5.87984 45.3611 4.29584 43.5071 4.29584C41.6531 4.29584 40.6091 5.87984 40.6091 7.64384C40.6091 9.42584 41.6531 11.0098 43.5071 11.0098Z" fill="#0067FF"/>
  <path d="M30.723 15.3118H29.373V3.30584H30.723V4.60184C31.353 3.71984 32.433 3.08984 33.657 3.08984C35.943 3.08984 37.527 4.81784 37.527 7.64384C37.527 10.4518 35.943 12.2158 33.657 12.2158C32.469 12.2158 31.425 11.6578 30.723 10.6858V15.3118ZM36.105 7.64384C36.105 5.71784 35.0611 4.29584 33.315 4.29584C32.253 4.29584 31.191 4.92584 30.723 5.68184V9.60585C31.191 10.3618 32.253 11.0098 33.315 11.0098C35.0611 11.0098 36.105 9.56985 36.105 7.64384Z" fill="#0067FF"/>
  <path d="M20.3871 15.3118H19.0371V3.30584H20.3871V4.60184C21.0171 3.71984 22.0971 3.08984 23.3211 3.08984C25.6071 3.08984 27.1911 4.81784 27.1911 7.64384C27.1911 10.4518 25.6071 12.2158 23.3211 12.2158C22.1331 12.2158 21.0891 11.6578 20.3871 10.6858V15.3118ZM25.7691 7.64384C25.7691 5.71784 24.7251 4.29584 22.9791 4.29584C21.9171 4.29584 20.8551 4.92584 20.3871 5.68184V9.60585C20.8551 10.3618 21.9171 11.0098 22.9791 11.0098C24.7251 11.0098 25.7691 9.56985 25.7691 7.64384Z" fill="#0067FF"/>
  <path d="M14.991 11.9997V10.7757C14.325 11.5317 13.191 12.2157 11.895 12.2157C10.077 12.2157 9.12305 11.3337 9.12305 9.44366V3.30566H10.473V9.02966C10.473 10.5597 11.247 11.0097 12.417 11.0097C13.479 11.0097 14.487 10.3977 14.991 9.69566V3.30566H16.341V11.9997H14.991Z" fill="#0067FF"/>
  <path d="M0 10.8478L0.702 9.87584C1.278 10.5418 2.376 11.1178 3.564 11.1178C4.896 11.1178 5.616 10.5238 5.616 9.67784C5.616 8.72384 4.554 8.41784 3.384 8.12984C1.908 7.78784 0.234 7.39184 0.234 5.59184C0.234 4.24184 1.404 3.08984 3.474 3.08984C4.95 3.08984 5.994 3.64784 6.696 4.34984L6.066 5.28584C5.544 4.65584 4.59 4.18784 3.474 4.18784C2.286 4.18784 1.548 4.72784 1.548 5.50184C1.548 6.34784 2.538 6.61784 3.672 6.88784C5.184 7.22984 6.93 7.66184 6.93 9.58784C6.93 11.0458 5.76 12.2158 3.51 12.2158C2.088 12.2158 0.882 11.7838 0 10.8478Z" fill="#0067FF"/>
</svg>