<svg width="20" height="21" viewBox="0 0 20 21" fill="none" xmlns="http://www.w3.org/2000/svg">
<g id="users-02">
<path id="Icon" d="M13.3332 3.57681C14.5679 4.19044 15.4165 5.46463 15.4165 6.93701C15.4165 8.4094 14.5679 9.68359 13.3332 10.2972M14.9998 14.659C16.2594 15.229 17.3936 16.1578 18.3332 17.3537M1.6665 17.3537C3.28858 15.2892 5.49082 14.0203 7.9165 14.0203C10.3422 14.0203 12.5444 15.2892 14.1665 17.3537M11.6665 6.93701C11.6665 9.00808 9.98757 10.687 7.9165 10.687C5.84544 10.687 4.1665 9.00808 4.1665 6.93701C4.1665 4.86594 5.84544 3.18701 7.9165 3.18701C9.98757 3.18701 11.6665 4.86594 11.6665 6.93701Z" stroke="#121926" stroke-width="1.66667" stroke-linecap="round" stroke-linejoin="round"/>
</g>
</svg>
